<?xml version="1.0" encoding="UTF-8"?>
<svg version="1.1" xmlns="http://www.w3.org/2000/svg" width="250" height="229">
<path d="M0 0 C2.74426621 2.24655404 5.10743741 4.01823491 8.4375 5.25 C12.93539872 7.19027004 14.6749335 9.97271043 17.0625 14.125 C18.92936305 17.11198088 20.98006802 19.3026207 23.625 21.625 C24.24890625 21.71007812 24.8728125 21.79515625 25.515625 21.8828125 C28.85669357 23.05837366 30.1654576 25.85628423 31.9375 28.75 C32.32776367 29.37600098 32.71802734 30.00200195 33.12011719 30.64697266 C50.03634281 58.39648726 56.52331576 92.38549499 49.21582031 124.28417969 C43.36436594 147.46754518 33.07638223 166.20588941 16.625 183.625 C15.88894531 184.43710938 15.15289062 185.24921875 14.39453125 186.0859375 C-6.81402139 208.60892305 -37.56538753 220.11953122 -68.02636719 221.55029297 C-101.99752561 222.54140322 -133.41359849 210.43808417 -158.375 187.625 C-159.48101562 186.62533203 -159.48101562 186.62533203 -160.609375 185.60546875 C-184.89729291 162.53194674 -195.95753152 130.51641983 -197.31591797 97.68457031 C-197.74457585 75.48646883 -191.94508482 46.72802199 -176.8125 29.75 C-176.008125 29.04875 -175.20375 28.3475 -174.375 27.625 C-170.82679665 24.25979089 -170.82679665 24.25979089 -168 20.3125 C-163.78624433 13.34359638 -158.41024266 8.6837629 -151.6640625 4.23046875 C-149.15423916 2.58099859 -149.15423916 2.58099859 -146.625 -0.25 C-143.87940512 -2.84306183 -142.10371908 -3.20927915 -138.375 -3.375 C-137.715 -3.045 -137.055 -2.715 -136.375 -2.375 C-135.55 -2.560625 -134.725 -2.74625 -133.875 -2.9375 C-133.05 -3.081875 -132.225 -3.22625 -131.375 -3.375 C-130.385 -2.385 -130.385 -2.385 -129.375 -1.375 C-129.48662781 3.42499567 -131.29675521 6.47311011 -133.92578125 10.3046875 C-135.375 11.625 -135.375 11.625 -139.375 11.625 C-138.715 12.615 -138.055 13.605 -137.375 14.625 C-137.57783328 20.566822 -140.20595738 25.61667834 -143.25390625 30.58203125 C-144.36426369 32.60543523 -144.92432665 34.37163327 -145.375 36.625 C-144.59125 36.74875 -143.8075 36.8725 -143 37 C-140.375 37.625 -140.375 37.625 -138.375 39.625 C-138.14453125 41.71875 -138.14453125 41.71875 -138.1875 44.125 C-138.19394531 44.9190625 -138.20039063 45.713125 -138.20703125 46.53125 C-138.375 48.625 -138.375 48.625 -139.375 50.625 C-133.57334261 49.65041328 -128.53517278 48.61246845 -123.375 45.625 C-124.035 44.965 -124.695 44.305 -125.375 43.625 C-125.375 41.75 -125.375 41.75 -124.375 39.625 C-121.06081743 36.71498603 -118.49152832 35.36135045 -114.125 35.25 C-110.375 35.625 -110.375 35.625 -108.375 37.625 C-108.375 38.615 -108.375 39.605 -108.375 40.625 C-99.465 38.15 -99.465 38.15 -90.375 35.625 C-91.695 34.965 -93.015 34.305 -94.375 33.625 C-95.203125 31.453125 -95.203125 31.453125 -95.625 28.875 C-95.77453125 28.03453125 -95.9240625 27.1940625 -96.078125 26.328125 C-96.39892088 23.40719411 -96.42651224 20.5611977 -96.375 17.625 C-94.25107494 16.9549166 -92.12582476 16.28903203 -90 15.625 C-88.81664063 15.25375 -87.63328125 14.8825 -86.4140625 14.5 C-83.375 13.625 -83.375 13.625 -81.375 13.625 C-81.375 10.985 -81.375 8.345 -81.375 5.625 C-76.83870773 2.9696094 -73.62870771 2.1293672 -68.375 2.625 C-67.385 3.285 -66.395 3.945 -65.375 4.625 C-65.1875 7.25 -65.1875 7.25 -65.375 9.625 C-62.97729644 9.09078033 -60.58179182 8.54921021 -58.1875 8 C-57.43807129 7.82831299 -56.68864258 7.65662598 -55.91650391 7.47973633 C-51.50646249 6.44279526 -47.15574043 5.29121449 -42.81640625 3.98828125 C-41.89045654 3.71129395 -40.96450684 3.43430664 -40.01049805 3.14892578 C-38.20219765 2.60101412 -36.39744856 2.04120867 -34.59692383 1.46826172 C-29.34379883 -0.12084265 -25.74451042 -0.56744972 -20.375 0.625 C-19.715 0.625 -19.055 0.625 -18.375 0.625 C-17.776875 -0.014375 -17.17875 -0.65375 -16.5625 -1.3125 C-11.1678919 -6.39884478 -5.11639872 -4.37756858 0 0 Z M-18.375 2.625 C-18.375 3.285 -18.375 3.945 -18.375 4.625 C-17.715 4.295 -17.055 3.965 -16.375 3.625 C-17.035 3.295 -17.695 2.965 -18.375 2.625 Z M-84.9375 32.125 C-86.1440625 33.3625 -86.1440625 33.3625 -87.375 34.625 C-84.405 33.965 -81.435 33.305 -78.375 32.625 C-79.365 31.635 -80.355 30.645 -81.375 29.625 C-82.85236982 29.50861269 -82.85236982 29.50861269 -84.9375 32.125 Z " fill="#D5D6D7" transform="translate(197.375,5.375)"/>
<path d="M0 0 C2.74426621 2.24655404 5.10743741 4.01823491 8.4375 5.25 C12.93539872 7.19027004 14.6749335 9.97271043 17.0625 14.125 C18.92936305 17.11198088 20.98006802 19.3026207 23.625 21.625 C24.24890625 21.71007812 24.8728125 21.79515625 25.515625 21.8828125 C28.85669357 23.05837366 30.1654576 25.85628423 31.9375 28.75 C32.32776367 29.37600098 32.71802734 30.00200195 33.12011719 30.64697266 C50.03634281 58.39648726 56.52331576 92.38549499 49.21582031 124.28417969 C43.36436594 147.46754518 33.07638223 166.20588941 16.625 183.625 C15.88894531 184.43710938 15.15289062 185.24921875 14.39453125 186.0859375 C-0.89022744 202.31799279 -25.66187978 217.2344008 -48.375 218.625 C-48.87 216.15 -48.87 216.15 -49.375 213.625 C-48.715 213.295 -48.055 212.965 -47.375 212.625 C-48.035 212.295 -48.695 211.965 -49.375 211.625 C-49.045 209.975 -48.715 208.325 -48.375 206.625 C-49.365 206.295 -50.355 205.965 -51.375 205.625 C-50.385 204.965 -49.395 204.305 -48.375 203.625 C-49.035 201.645 -49.695 199.665 -50.375 197.625 C-51.59316406 198.00914062 -52.81132812 198.39328125 -54.06640625 198.7890625 C-55.68980983 199.27702196 -57.31352471 199.7639466 -58.9375 200.25 C-59.73736328 200.50523437 -60.53722656 200.76046875 -61.36132812 201.0234375 C-66.82703039 202.6296847 -70.05203269 202.72560724 -75.375 200.625 C-75.87 197.16 -75.87 197.16 -76.375 193.625 C-75.715 194.615 -75.055 195.605 -74.375 196.625 C-73.86453125 195.82707031 -73.3540625 195.02914062 -72.828125 194.20703125 C-69.65912186 190.87150406 -67.64256859 190.77262273 -63.125 190.3125 C-61.23007813 190.10173828 -61.23007813 190.10173828 -59.296875 189.88671875 C-58.33265625 189.80035156 -57.3684375 189.71398437 -56.375 189.625 C-56.705 188.965 -57.035 188.305 -57.375 187.625 C-56.385 186.965 -55.395 186.305 -54.375 185.625 C-54.375 184.635 -54.375 183.645 -54.375 182.625 C-55.468125 182.0475 -56.56125 181.47 -57.6875 180.875 C-60.64304725 179.17840797 -62.77057248 177.73357832 -64.375 174.625 C-64.045 173.635 -63.715 172.645 -63.375 171.625 C-62.715 172.285 -62.055 172.945 -61.375 173.625 C-60.8696875 173.31304687 -60.364375 173.00109375 -59.84375 172.6796875 C-56.58684845 171.28828969 -53.36222447 171.07323429 -49.875 170.75 C-40.65871793 169.74793305 -32.28670274 167.62861741 -24.375 162.625 C-25.365 161.965 -26.355 161.305 -27.375 160.625 C-28.71290641 159.63112666 -30.04718122 158.6323108 -31.375 157.625 C-31.045 155.975 -30.715 154.325 -30.375 152.625 C-30.045 153.945 -29.715 155.265 -29.375 156.625 C-29.045 156.625 -28.715 156.625 -28.375 156.625 C-28.148125 156.0475 -27.92125 155.47 -27.6875 154.875 C-24.49933672 149.40957723 -19.17583172 147.34376495 -13.375 145.625 C-11.38543215 145.23419203 -9.38693023 144.87649128 -7.375 144.625 C-8.921875 144.8415625 -8.921875 144.8415625 -10.5 145.0625 C-13.80049813 145.54160457 -17.08768341 146.06375083 -20.375 146.625 C-17.15109272 143.40109272 -13.60555129 142.69599334 -9.125 142.4375 C-6.375 142.625 -6.375 142.625 -4.375 143.625 C-4.08928571 151.05357143 -4.08928571 151.05357143 -6.375 154.625 C-3.735 154.295 -1.095 153.965 1.625 153.625 C0.965 154.285 0.305 154.945 -0.375 155.625 C1.935 154.635 4.245 153.645 6.625 152.625 C6.625 151.635 6.625 150.645 6.625 149.625 C8.76324216 147.92439257 10.84589861 146.42294342 13.125 144.9375 C13.74503906 144.52177734 14.36507812 144.10605469 15.00390625 143.67773438 C16.53815943 142.65096494 18.08081929 141.63677775 19.625 140.625 C18.985625 139.7175 18.34625 138.81 17.6875 137.875 C14.8667279 133.43014699 14.46082809 130.3319043 14.375 125.125 C14.33632813 123.71734375 14.33632813 123.71734375 14.296875 122.28125 C14.68304414 119.15511887 15.40115223 117.83361594 17.625 115.625 C21.25 114.9375 21.25 114.9375 24.625 114.625 C25.96401792 113.51373341 25.96401792 113.51373341 25.72265625 110.68359375 C25.71105469 109.48863281 25.69945312 108.29367188 25.6875 107.0625 C25.67847656 105.86496094 25.66945312 104.66742188 25.66015625 103.43359375 C25.64855469 102.50675781 25.63695312 101.57992187 25.625 100.625 C24.51125 101.615 24.51125 101.615 23.375 102.625 C20.625 104.625 20.625 104.625 16.625 104.625 C16.625 105.615 16.625 106.605 16.625 107.625 C14.975 107.625 13.325 107.625 11.625 107.625 C11.295 106.965 10.965 106.305 10.625 105.625 C10.295 106.285 9.965 106.945 9.625 107.625 C8.80224328 106.08878265 7.99227423 104.54571368 7.1875 103 C6.73503906 102.14148438 6.28257812 101.28296875 5.81640625 100.3984375 C4.55295818 97.45729608 4.02876741 94.79016521 3.625 91.625 C2.39523438 92.29208984 2.39523438 92.29208984 1.140625 92.97265625 C0.06296875 93.53855469 -1.0146875 94.10445313 -2.125 94.6875 C-3.72601563 95.54021484 -3.72601563 95.54021484 -5.359375 96.41015625 C-8.375 97.625 -8.375 97.625 -12.375 96.625 C-7.755 94.315 -3.135 92.005 1.625 89.625 C1.27385925 83.30446647 0.63296554 78.72068393 -2.53515625 73.21875 C-3.375 71.625 -3.375 71.625 -3.375 69.625 C-3.95507812 70.1303125 -4.53515625 70.635625 -5.1328125 71.15625 C-11.42180851 76.38670213 -11.42180851 76.38670213 -15.625 77.4375 C-19.71896108 76.22792059 -20.94161852 74.10125926 -23.375 70.625 C-24.55173198 68.27153604 -24.54123866 66.7443967 -24.5625 64.125 C-24.57667969 63.3309375 -24.59085938 62.536875 -24.60546875 61.71875 C-24.375 59.625 -24.375 59.625 -22.375 57.625 C-19.68660615 57.35508094 -17.08358064 57.53762643 -14.375 57.625 C-15.91769924 52.90434033 -17.45294619 48.20835908 -19.375 43.625 C-18.385 43.625 -17.395 43.625 -16.375 43.625 C-14.50587286 42.80581528 -14.50587286 42.80581528 -12.58203125 41.65625 C-11.86982422 41.25019531 -11.15761719 40.84414063 -10.42382812 40.42578125 C-9.68583984 39.99652344 -8.94785156 39.56726562 -8.1875 39.125 C-7.43791016 38.69574219 -6.68832031 38.26648437 -5.91601562 37.82421875 C-4.06571661 36.76353779 -2.21991937 35.69501077 -0.375 34.625 C-1.54417969 35.17929687 -2.71335938 35.73359375 -3.91796875 36.3046875 C-5.46610925 37.03653573 -7.01428837 37.76830227 -8.5625 38.5 C-9.33142578 38.86480469 -10.10035156 39.22960938 -10.89257812 39.60546875 C-21.89081733 44.79777052 -32.98723437 49.63168073 -45.375 48.625 C-46.35091583 45.24182513 -46.23356655 43.0592662 -45.375 39.625 C-52.72674806 39.07246779 -57.886583 40.11435892 -64.375 43.625 C-63.88 46.1 -63.88 46.1 -63.375 48.625 C-61.395 49.285 -59.415 49.945 -57.375 50.625 C-57.375 52.275 -57.375 53.925 -57.375 55.625 C-62.75045712 58.7833073 -68.15190269 59.75070392 -74.25 60.8125 C-75.22453125 60.98974609 -76.1990625 61.16699219 -77.203125 61.34960938 C-79.59239995 61.78295826 -81.98285745 62.20782513 -84.375 62.625 C-85.57225286 66.21675859 -85.03380337 67.44310464 -83.9375 71 C-81.81978401 77.89444759 -81.81978401 77.89444759 -82.375 81.625 C-84.73527268 84.37269118 -86.2064718 84.61070179 -89.828125 84.91796875 C-91.08109375 84.88316406 -92.3340625 84.84835938 -93.625 84.8125 C-94.88828125 84.78542969 -96.1515625 84.75835937 -97.453125 84.73046875 C-98.41734375 84.69566406 -99.3815625 84.66085938 -100.375 84.625 C-101.035 88.585 -101.695 92.545 -102.375 96.625 C-102.705 96.625 -103.035 96.625 -103.375 96.625 C-103.80297259 91.72709147 -104.0645307 87.90190871 -101.6875 83.5 C-96.48086279 80.55284686 -91.22293909 81.23970387 -85.375 81.625 C-85.1658445 76.50069024 -85.92529232 72.51776342 -87.375 67.625 C-87.41341438 65.95877609 -87.4204893 64.29104577 -87.375 62.625 C-91.41950924 63.38138158 -95.45995648 64.15764647 -99.5 64.9375 C-100.64210937 65.15083984 -101.78421875 65.36417969 -102.9609375 65.58398438 C-108.54102723 66.67080418 -113.48835904 67.65997408 -118.375 70.625 C-118.045 71.181875 -117.715 71.73875 -117.375 72.3125 C-116.2440399 74.92784522 -116.21837026 76.8056646 -116.375 79.625 C-121.91251723 82.92394643 -125.90287492 84.29453018 -132.375 83.625 C-133.035 82.965 -133.695 82.305 -134.375 81.625 C-134.0192194 78.24508426 -133.01784201 75.58211562 -131.375 72.625 C-133.87864175 71.37317913 -135.55063655 71.52663758 -138.34765625 71.5625 C-139.82008789 71.57410156 -139.82008789 71.57410156 -141.32226562 71.5859375 C-142.86430664 71.60527344 -142.86430664 71.60527344 -144.4375 71.625 C-146.47000027 71.65039038 -148.50256066 71.67146374 -150.53515625 71.6875 C-151.89072632 71.70490234 -151.89072632 71.70490234 -153.27368164 71.72265625 C-155.375 71.625 -155.375 71.625 -156.375 70.625 C-157.01075022 65.03773364 -156.91119834 58.26209028 -153.375 53.625 C-149.02558086 51.71534314 -144.75879709 51.22792016 -140.0625 50.75 C-133.86635237 49.99228569 -128.82150038 48.66559371 -123.375 45.625 C-124.035 44.965 -124.695 44.305 -125.375 43.625 C-125.375 41.75 -125.375 41.75 -124.375 39.625 C-121.06081743 36.71498603 -118.49152832 35.36135045 -114.125 35.25 C-110.375 35.625 -110.375 35.625 -108.375 37.625 C-108.375 38.615 -108.375 39.605 -108.375 40.625 C-99.465 38.15 -99.465 38.15 -90.375 35.625 C-91.695 34.965 -93.015 34.305 -94.375 33.625 C-95.203125 31.453125 -95.203125 31.453125 -95.625 28.875 C-95.77453125 28.03453125 -95.9240625 27.1940625 -96.078125 26.328125 C-96.39892088 23.40719411 -96.42651224 20.5611977 -96.375 17.625 C-94.25107494 16.9549166 -92.12582476 16.28903203 -90 15.625 C-88.81664063 15.25375 -87.63328125 14.8825 -86.4140625 14.5 C-83.375 13.625 -83.375 13.625 -81.375 13.625 C-81.375 10.985 -81.375 8.345 -81.375 5.625 C-76.83870773 2.9696094 -73.62870771 2.1293672 -68.375 2.625 C-67.385 3.285 -66.395 3.945 -65.375 4.625 C-65.1875 7.25 -65.1875 7.25 -65.375 9.625 C-62.97729644 9.09078033 -60.58179182 8.54921021 -58.1875 8 C-57.43807129 7.82831299 -56.68864258 7.65662598 -55.91650391 7.47973633 C-51.50646249 6.44279526 -47.15574043 5.29121449 -42.81640625 3.98828125 C-41.89045654 3.71129395 -40.96450684 3.43430664 -40.01049805 3.14892578 C-38.20219765 2.60101412 -36.39744856 2.04120867 -34.59692383 1.46826172 C-29.34379883 -0.12084265 -25.74451042 -0.56744972 -20.375 0.625 C-19.715 0.625 -19.055 0.625 -18.375 0.625 C-17.776875 -0.014375 -17.17875 -0.65375 -16.5625 -1.3125 C-11.1678919 -6.39884478 -5.11639872 -4.37756858 0 0 Z M-18.375 2.625 C-18.375 3.285 -18.375 3.945 -18.375 4.625 C-17.715 4.295 -17.055 3.965 -16.375 3.625 C-17.035 3.295 -17.695 2.965 -18.375 2.625 Z M-84.9375 32.125 C-86.1440625 33.3625 -86.1440625 33.3625 -87.375 34.625 C-84.405 33.965 -81.435 33.305 -78.375 32.625 C-79.365 31.635 -80.355 30.645 -81.375 29.625 C-82.85236982 29.50861269 -82.85236982 29.50861269 -84.9375 32.125 Z " fill="#C1C2C4" transform="translate(197.375,5.375)"/>
<path d="M0 0 C2.63862042 0.67686576 2.63862042 0.67686576 5.3125 -0.0625 C6.4571875 -0.2790625 6.4571875 -0.2790625 7.625 -0.5 C8.615 0.49 8.615 0.49 9.625 1.5 C9.51337219 6.29999567 7.70324479 9.34811011 5.07421875 13.1796875 C3.625 14.5 3.625 14.5 -0.375 14.5 C0.285 15.49 0.945 16.48 1.625 17.5 C1.42216672 23.441822 -1.20595738 28.49167834 -4.25390625 33.45703125 C-5.36426369 35.48043523 -5.92432665 37.24663327 -6.375 39.5 C-5.59125 39.62375 -4.8075 39.7475 -4 39.875 C-1.375 40.5 -1.375 40.5 0.625 42.5 C0.890625 44.55859375 0.890625 44.55859375 0.875 46.9375 C0.88273437 48.11119141 0.88273437 48.11119141 0.890625 49.30859375 C0.625 51.5 0.625 51.5 -1.375 54.5 C-4.4140625 55.23046875 -4.4140625 55.23046875 -8 55.6875 C-9.18851563 55.84605469 -10.37703125 56.00460938 -11.6015625 56.16796875 C-12.51679687 56.27753906 -13.43203125 56.38710938 -14.375 56.5 C-14.705 57.634375 -15.035 58.76875 -15.375 59.9375 C-15.6534375 60.89462891 -15.6534375 60.89462891 -15.9375 61.87109375 C-16.58189356 65.74320862 -16.45113328 69.58389445 -16.375 73.5 C-15.72426514 73.48952637 -15.07353027 73.47905273 -14.40307617 73.46826172 C-11.4562567 73.42670165 -8.50949889 73.40067392 -5.5625 73.375 C-4.53833984 73.35824219 -3.51417969 73.34148437 -2.45898438 73.32421875 C-1.47607422 73.31777344 -0.49316406 73.31132813 0.51953125 73.3046875 C1.42550049 73.29421387 2.33146973 73.28374023 3.26489258 73.27294922 C5.625 73.5 5.625 73.5 8.625 75.5 C8.315625 76.056875 8.00625 76.61375 7.6875 77.1875 C6.5586998 79.64430044 5.9865143 81.82479417 5.625 84.5 C6.81808138 85.91200829 6.81808138 85.91200829 10.25 85.75 C14.66848919 85.71809755 17.7007151 84.46214245 21.625 82.5 C21.82640476 78.87471432 21.48276765 76.63498292 19.625 73.5 C27.5914431 66.87973825 41.51911732 65.26113368 51.625 65.5 C55.17121849 78.35504202 55.17121849 78.35504202 54.625 84.5 C54.295 84.83 53.965 85.16 53.625 85.5 C50.35348932 85.44980946 47.09224777 85.30189435 43.82421875 85.14453125 C40.57543668 85.24313511 40.57543668 85.24313511 38.23046875 87.203125 C35.51779286 91.08403358 36.10985237 94.9446231 36.625 99.5 C37.47560013 102.47980201 37.47560013 102.47980201 38.625 104.5 C41.93067489 105.35387105 41.93067489 105.35387105 45.625 105.5 C46.9993291 104.20896357 48.33396357 102.8743291 49.625 101.5 C53.30636171 100.87338524 55.04893218 101.17847377 58.3125 103 C63.47844605 108.58480654 63.77033251 114.18748023 63.625 121.5 C62.4390625 121.65855469 61.253125 121.81710938 60.03125 121.98046875 C50.31026828 123.35519382 41.15024848 125.26464542 31.84765625 128.4140625 C29.44019111 129.2253053 27.09885558 129.94198746 24.625 130.5 C25.9947164 134.49500618 27.88222422 137.30009492 30.625 140.5 C21.09429825 144.63596491 21.09429825 144.63596491 15.4375 144.5625 C14.53644531 144.55347656 13.63539062 144.54445312 12.70703125 144.53515625 C11.67642578 144.51775391 11.67642578 144.51775391 10.625 144.5 C9.965 143.18 9.305 141.86 8.625 140.5 C9.615 139.51 10.605 138.52 11.625 137.5 C10.37523244 133.84683329 9.95401247 132.71934164 6.625 130.5 C3.91121528 130.22374906 3.91121528 130.22374906 0.86328125 130.3046875 C-0.81411133 130.31435547 -0.81411133 130.31435547 -2.52539062 130.32421875 C-3.69263672 130.34097656 -4.85988281 130.35773438 -6.0625 130.375 C-7.24134766 130.38402344 -8.42019531 130.39304688 -9.63476562 130.40234375 C-12.54838026 130.42593577 -15.46158892 130.4588546 -18.375 130.5 C-19.18315413 125.96426989 -19.48101658 121.73775733 -19.4375 117.125 C-19.42847656 115.87976563 -19.41945312 114.63453125 -19.41015625 113.3515625 C-19.39855469 112.41054687 -19.38695312 111.46953125 -19.375 110.5 C-20.035 110.5 -20.695 110.5 -21.375 110.5 C-21.1275 112.35625 -21.1275 112.35625 -20.875 114.25 C-20.22387571 120.00006943 -20.28699586 125.7210614 -20.375 131.5 C-23.015 131.5 -25.655 131.5 -28.375 131.5 C-25.405 131.83 -22.435 132.16 -19.375 132.5 C-19.705 133.49 -20.035 134.48 -20.375 135.5 C-20.87856717 141.66869788 -19.32432302 146.73325274 -17.375 152.5 C-9.83452096 153.57859862 -9.83452096 153.57859862 -2.375 152.5 C0.01981309 155.64319217 1.52989071 157.79347383 2.0625 161.75 C1.918125 162.6575 1.77375 163.565 1.625 164.5 C-1.375 166.5 -1.375 166.5 -4.25 166.25 C-7.11708654 165.56189923 -9.68173466 164.6882053 -12.375 163.5 C-13.035 164.16 -13.695 164.82 -14.375 165.5 C-13.9921896 169.5577902 -13.22027244 173.51514422 -12.375 177.5 C-13.365 177.83 -14.355 178.16 -15.375 178.5 C-14.4675 178.54125 -13.56 178.5825 -12.625 178.625 C-9.375 179.5 -9.375 179.5 -7.5 182 C-7.19835938 182.52851563 -6.89671875 183.05703125 -6.5859375 183.6015625 C-4.02863708 187.61074961 -0.57845523 191.00108045 2.625 194.5 C1.635 195.16 0.645 195.82 -0.375 196.5 C-1.035 196.17 -1.695 195.84 -2.375 195.5 C-2.705 196.16 -3.035 196.82 -3.375 197.5 C-7.32925206 194.89019364 -10.52631246 192.51412147 -13.5 188.8125 C-15.8353867 185.92465624 -17.69028677 184.47536527 -21.375 183.5 C-20.385 185.48 -19.395 187.46 -18.375 189.5 C-33.15589214 183.39191443 -43.74441185 160.52201985 -49.52294922 146.67480469 C-53.58173598 136.31501315 -56.23845486 125.56839987 -57.375 114.5 C-57.5090625 113.21996094 -57.643125 111.93992187 -57.78125 110.62109375 C-60.09803199 84.66944825 -54.31617928 57.65057398 -40.375 35.5 C-37.8125 32.625 -37.8125 32.625 -35.375 30.5 C-31.82679665 27.13479089 -31.82679665 27.13479089 -29 23.1875 C-24.78665646 16.219278 -19.41050415 11.57143826 -12.67578125 7.10546875 C-10.69357828 5.72230165 -9.09295585 4.37048064 -7.4375 2.625 C-4.94965886 0.06176973 -3.55284233 -0.74796681 0 0 Z " fill="#E5E5E6" transform="translate(58.375,2.5)"/>
<path d="M0 0 C0.65353514 2.47735414 1.29789601 4.95654474 1.9375 7.4375 C2.21110352 8.46907227 2.21110352 8.46907227 2.49023438 9.52148438 C9.93629682 38.62881938 3.98483287 71.92177833 -10.96875 97.70703125 C-16.45572532 106.60226239 -22.8338093 114.41226867 -30 122 C-30.73605469 122.81210938 -31.47210938 123.62421875 -32.23046875 124.4609375 C-47.51522744 140.69299279 -72.28687978 155.6094008 -95 157 C-95.33 155.35 -95.66 153.7 -96 152 C-95.34 151.67 -94.68 151.34 -94 151 C-94.66 150.67 -95.32 150.34 -96 150 C-95.67 148.35 -95.34 146.7 -95 145 C-95.99 144.67 -96.98 144.34 -98 144 C-96.515 143.01 -96.515 143.01 -95 142 C-95.66 140.02 -96.32 138.04 -97 136 C-98.21816406 136.38414062 -99.43632812 136.76828125 -100.69140625 137.1640625 C-102.31480983 137.65202196 -103.93852471 138.1389466 -105.5625 138.625 C-106.36236328 138.88023437 -107.16222656 139.13546875 -107.98632812 139.3984375 C-113.45203039 141.0046847 -116.67703269 141.10060724 -122 139 C-122.33 136.69 -122.66 134.38 -123 132 C-122.34 132.99 -121.68 133.98 -121 135 C-120.48953125 134.20207031 -119.9790625 133.40414062 -119.453125 132.58203125 C-116.28412186 129.24650406 -114.26756859 129.14762273 -109.75 128.6875 C-108.48671875 128.54699219 -107.2234375 128.40648437 -105.921875 128.26171875 C-104.95765625 128.17535156 -103.9934375 128.08898437 -103 128 C-103.495 127.01 -103.495 127.01 -104 126 C-102.515 125.01 -102.515 125.01 -101 124 C-101 123.01 -101 122.02 -101 121 C-102.093125 120.4225 -103.18625 119.845 -104.3125 119.25 C-107.26804725 117.55340797 -109.39557248 116.10857832 -111 113 C-110.67 112.01 -110.34 111.02 -110 110 C-109.34 110.66 -108.68 111.32 -108 112 C-107.4946875 111.68804687 -106.989375 111.37609375 -106.46875 111.0546875 C-103.21184845 109.66328969 -99.98722447 109.44823429 -96.5 109.125 C-87.28371793 108.12293305 -78.91170274 106.00361741 -71 101 C-71.99 100.34 -72.98 99.68 -74 99 C-75.33790641 98.00612666 -76.67218122 97.0073108 -78 96 C-77.67 94.35 -77.34 92.7 -77 91 C-76.67 92.32 -76.34 93.64 -76 95 C-75.67 95 -75.34 95 -75 95 C-74.773125 94.4225 -74.54625 93.845 -74.3125 93.25 C-71.12433672 87.78457723 -65.80083172 85.71876495 -60 84 C-58.01043215 83.60919203 -56.01193023 83.25149128 -54 83 C-55.546875 83.2165625 -55.546875 83.2165625 -57.125 83.4375 C-60.42549813 83.91660457 -63.71268341 84.43875083 -67 85 C-63.77609272 81.77609272 -60.23055129 81.07099334 -55.75 80.8125 C-53 81 -53 81 -51 82 C-50.71428571 89.42857143 -50.71428571 89.42857143 -53 93 C-50.36 92.67 -47.72 92.34 -45 92 C-45.66 92.66 -46.32 93.32 -47 94 C-44.69 93.01 -42.38 92.02 -40 91 C-40 90.01 -40 89.02 -40 88 C-37.86175784 86.29939257 -35.77910139 84.79794342 -33.5 83.3125 C-32.56994141 82.68891602 -32.56994141 82.68891602 -31.62109375 82.05273438 C-30.08684057 81.02596494 -28.54418071 80.01177775 -27 79 C-27.639375 78.0925 -28.27875 77.185 -28.9375 76.25 C-31.7582721 71.80514699 -32.16417191 68.7069043 -32.25 63.5 C-32.27578125 62.5615625 -32.3015625 61.623125 -32.328125 60.65625 C-31.94195586 57.53011887 -31.22384777 56.20861594 -29 54 C-25.375 53.3125 -25.375 53.3125 -22 53 C-20.66098208 51.88873341 -20.66098208 51.88873341 -20.90234375 49.05859375 C-20.91394531 47.86363281 -20.92554688 46.66867188 -20.9375 45.4375 C-20.94652344 44.23996094 -20.95554687 43.04242188 -20.96484375 41.80859375 C-20.97644531 40.88175781 -20.98804688 39.95492187 -21 39 C-21.7425 39.66 -22.485 40.32 -23.25 41 C-26 43 -26 43 -30 43 C-30 43.99 -30 44.98 -30 46 C-31.65 46 -33.3 46 -35 46 C-35.33 45.34 -35.66 44.68 -36 44 C-36.495 44.99 -36.495 44.99 -37 46 C-37.82275672 44.46378265 -38.63272577 42.92071368 -39.4375 41.375 C-39.88996094 40.51648438 -40.34242188 39.65796875 -40.80859375 38.7734375 C-42.07204182 35.83229608 -42.59623259 33.16516521 -43 30 C-43.81984375 30.44472656 -44.6396875 30.88945313 -45.484375 31.34765625 C-46.56203125 31.91355469 -47.6396875 32.47945312 -48.75 33.0625 C-50.35101563 33.91521484 -50.35101563 33.91521484 -51.984375 34.78515625 C-55 36 -55 36 -59 35 C-52.07 31.535 -52.07 31.535 -45 28 C-45.33 23.71 -45.66 19.42 -46 15 C-43.57869669 17.42130331 -43.47159496 18.80111377 -42.875 22.125 C-42.70742187 23.03507812 -42.53984375 23.94515625 -42.3671875 24.8828125 C-42.24601562 25.58148438 -42.12484375 26.28015625 -42 27 C-40.68 26.67 -39.36 26.34 -38 26 C-38.99 26.99 -39.98 27.98 -41 29 C-40.67 29.33 -40.34 29.66 -40 30 C-38.32471737 28.74054645 -36.65997386 27.46706318 -35 26.1875 C-34.071875 25.47980469 -33.14375 24.77210937 -32.1875 24.04296875 C-31.465625 23.36878906 -30.74375 22.69460937 -30 22 C-30 21.01 -30 20.02 -30 19 C-28.20703125 16.95703125 -28.20703125 16.95703125 -25.8125 14.8125 C-25.03519531 14.09707031 -24.25789063 13.38164063 -23.45703125 12.64453125 C-20.67667928 10.78359615 -19.27412306 10.64525487 -16 11 C-13.58314288 15.22949995 -12.65166856 18.12335991 -13 23 C-10.44309577 21.91744593 -10.44309577 21.91744593 -8 20 C-6.94494232 16.38265938 -6.8033254 14.59002381 -8 11 C-8.99 10.01 -8.99 10.01 -10 9 C-9.34 7.68 -8.68 6.36 -8 5 C-8.66 5.33 -9.32 5.66 -10 6 C-8.94901234 3.13367003 -8.33137046 2.16993357 -5.5625 0.75 C-3 0 -3 0 0 0 Z " fill="#A3A4A7" transform="translate(244,67)"/>
<path d="M0 0 C0.66 0.66 1.32 1.32 2 2 C1.45652174 8.08695652 1.45652174 8.08695652 0 11 C0.66 10.690625 1.32 10.38125 2 10.0625 C5 9 5 9 8.6875 8.6875 C13.30157649 8.23048671 16.87227409 6.25864899 20.8984375 4.05859375 C23 3 23 3 25 3 C26.98 7.95 28.96 12.9 31 18 C31.495 16.515 31.495 16.515 32 15 C32.495 16.98 32.495 16.98 33 19 C34.65 19 36.3 19 38 19 C38 18.01 38 17.02 38 16 C41.75 14 41.75 14 44 14 C44 13.34 44 12.68 44 12 C44.99 12 45.98 12 47 12 C48.30089831 14.60179663 48.16840078 16.5969188 48.1875 19.5 C48.20167969 20.4796875 48.21585937 21.459375 48.23046875 22.46875 C48 25 48 25 46 27 C44.845 27.144375 43.69 27.28875 42.5 27.4375 C41.345 27.623125 40.19 27.80875 39 28 C36.01883261 32.47175108 36.50914796 36.75447666 37 42 C38.04504826 45.74868924 39.84099481 48.76149222 42 52 C40.989375 52.68707031 39.97875 53.37414062 38.9375 54.08203125 C37.62463417 54.99165972 36.31215393 55.9018449 35 56.8125 C34.33226562 57.26431641 33.66453125 57.71613281 32.9765625 58.18164062 C31.26282507 59.37950812 29.62478849 60.68400422 28 62 C28 62.99 28 63.98 28 65 C22.63560356 67.68219822 18.98993047 68.3152595 13 68 C13 67.67 13 67.34 13 67 C14.65 66.67 16.3 66.34 18 66 C17.01 66 16.02 66 15 66 C15.66 62.37 16.32 58.74 17 55 C15.72125 54.979375 14.4425 54.95875 13.125 54.9375 C12.40570313 54.92589844 11.68640625 54.91429687 10.9453125 54.90234375 C8.91814596 54.87350758 8.91814596 54.87350758 7 56 C10.465 55.505 10.465 55.505 14 55 C14.33 55.66 14.66 56.32 15 57 C14.05640625 57.14695312 14.05640625 57.14695312 13.09375 57.296875 C6.02397097 58.53195688 -1.20607683 60.25324738 -6 66 C-5.77242269 68.16299211 -5.77242269 68.16299211 -5 70 C-6.32 69.34 -7.64 68.68 -9 68 C-9 68.33 -9 68.66 -9 69 C-6.64225405 70.68134288 -6.64225405 70.68134288 -4 72 C-3.34 71.67 -2.68 71.34 -2 71 C-2.234375 72.83984375 -2.234375 72.83984375 -3 75 C-12.23424604 81.96514712 -25.33507114 83.0425612 -36.41796875 84.5703125 C-38.97742248 84.86607777 -38.97742248 84.86607777 -41 86 C-41.33 85.34 -41.66 84.68 -42 84 C-43.89533342 83.53476937 -43.89533342 83.53476937 -46.0625 83.375 C-48.0115625 83.189375 -48.0115625 83.189375 -50 83 C-50 82.67 -50 82.34 -50 82 C-48.35 82 -46.7 82 -45 82 C-45.32742187 81.43796875 -45.65484375 80.8759375 -45.9921875 80.296875 C-47.11785494 77.73140036 -47.2068111 76.03157723 -47.125 73.25 C-47.10695312 72.45078125 -47.08890625 71.6515625 -47.0703125 70.828125 C-47.04710937 70.22484375 -47.02390625 69.6215625 -47 69 C-46.01 68.505 -46.01 68.505 -45 68 C-45 69.98 -45 71.96 -45 74 C-44.690625 72.6696875 -44.690625 72.6696875 -44.375 71.3125 C-42.72901434 67.34717091 -40.92513748 64.76592629 -37 63 C-34.07399233 62.74825604 -31.31855057 62.80753664 -28.390625 63.01953125 C-25.81035847 63.27789605 -25.81035847 63.27789605 -24 61 C-24.33 60.34 -24.66 59.68 -25 59 C-25.30869938 56.70190464 -25.50883648 54.40279871 -25.71875 52.09375 C-25.892155 49.94556067 -25.892155 49.94556067 -27 48 C-31.65153573 47.40999676 -31.65153573 47.40999676 -35.77734375 49.30078125 C-36.34582031 49.84089844 -36.91429687 50.38101563 -37.5 50.9375 C-40.08261774 53.38083049 -41.11563248 54.03527771 -44.6875 55.125 C-48 55 -48 55 -50.3125 53.5 C-54.82425438 46.81591943 -54.23014396 39.78653747 -54 32 C-53.67 32 -53.34 32 -53 32 C-52.67 34.31 -52.34 36.62 -52 39 C-51.34 37.02 -50.68 35.04 -50 33 C-46.37 32.34 -42.74 31.68 -39 31 C-43.29 31 -47.58 31 -52 31 C-52 30.67 -52 30.34 -52 30 C-50.74445313 29.82984375 -49.48890625 29.6596875 -48.1953125 29.484375 C-35.20838929 27.64637997 -35.20838929 27.64637997 -23 23 C-22.25621094 22.63003906 -21.51242188 22.26007813 -20.74609375 21.87890625 C-19.88177734 21.44384766 -19.88177734 21.44384766 -19 21 C-18.66781808 17.99740483 -18.66781808 17.99740483 -20.5 16.3125 C-20.995 15.879375 -21.49 15.44625 -22 15 C-21.01 15 -20.02 15 -19 15 C-19.99 14.34 -20.98 13.68 -22 13 C-21.875 11.25 -21.875 11.25 -21 9 C-18.03950471 6.74744924 -15.5319632 5.17732107 -12 4 C-16.92178161 4.43427485 -19.45459675 6.69095697 -23 10 C-23.99 11.485 -23.99 11.485 -25 13 C-24.78600145 9.25502546 -24.07843077 8.07843077 -21.375 5.375 C-14.74573387 0.40696841 -8.18182953 -1.04477757 0 0 Z " fill="#CBCCCD" transform="translate(176,94)"/>
<path d="M0 0 C-0.50450684 0.26216309 -1.00901367 0.52432617 -1.52880859 0.79443359 C-3.81290489 1.98409997 -6.09396567 3.17947397 -8.375 4.375 C-9.1690625 4.7875 -9.963125 5.2 -10.78125 5.625 C-11.92207031 6.22441406 -11.92207031 6.22441406 -13.0859375 6.8359375 C-13.7876709 7.20251465 -14.4894043 7.5690918 -15.21240234 7.94677734 C-17.16163413 8.99478038 -17.16163413 8.99478038 -19 11 C-18.690625 11.495 -18.38125 11.99 -18.0625 12.5 C-16.58355618 15.97986781 -16.37597149 19.24028509 -16 23 C-18.05078125 23.22786458 -20.1015625 23.45572917 -22.15234375 23.68359375 C-24.01140229 23.81886614 -24.01140229 23.81886614 -25 25 C-25.58557893 29.55983595 -25.68515728 33.59452122 -23.0625 37.5 C-20.80608004 40.59359226 -20.80608004 40.59359226 -17.375 41.4375 C-13.1173491 40.88558229 -11.51875291 39.23446229 -8.515625 36.3125 C-7 35 -7 35 -5 35 C-1.14832768 41.6800221 0.81895467 47.26442661 1 55 C-14.56036446 63.81548975 -14.56036446 63.81548975 -23 65 C-22.91621094 64.36191406 -22.83242187 63.72382812 -22.74609375 63.06640625 C-22.64425781 62.24011719 -22.54242188 61.41382813 -22.4375 60.5625 C-22.33308594 59.73878906 -22.22867188 58.91507813 -22.12109375 58.06640625 C-22.08113281 57.38449219 -22.04117188 56.70257813 -22 56 C-23.67411854 54.32588146 -25.63774625 54.70886199 -27.9375 54.625 C-34.13179518 54.66543274 -38.92533326 56.47454659 -44 60 C-44.66 60.99 -45.32 61.98 -46 63 C-45.13375 62.195625 -44.2675 61.39125 -43.375 60.5625 C-40.37123907 58.03075864 -37.96796738 57.28342624 -34 57 C-35.50204927 60.00409853 -38.09159893 60.50961987 -41.08984375 61.8046875 C-43.37851364 63.2368613 -44.0121445 64.52777525 -45 67 C-43.68 67.66 -42.36 68.32 -41 69 C-41.99 69.33 -42.98 69.66 -44 70 C-43.01 70.66 -42.02 71.32 -41 72 C-41.34804351 74.60203957 -41.63801155 75.71024508 -43.72265625 77.37890625 C-51.52638584 81.3263688 -59.43725099 82.69327776 -68 84 C-64.7 84 -61.4 84 -58 84 C-58.33 84.66 -58.66 85.32 -59 86 C-60.890625 86.37890625 -60.890625 86.37890625 -63.25 86.5625 C-66.56286973 86.85838629 -69.74945701 87.26600642 -73 88 C-73.33 89.98 -73.66 91.96 -74 94 C-75.33333333 94 -76.66666667 94 -78 94 C-78 91.69 -78 89.38 -78 87 C-80.64 87 -83.28 87 -86 87 C-86 86.67 -86 86.34 -86 86 C-81.05 85.505 -81.05 85.505 -76 85 C-76.2415642 77.64437016 -76.55304647 72.01646654 -81 66 C-84.65295095 63.56469937 -87.74659774 63.2493996 -92 64 C-94.22977996 65.97901574 -94.22977996 65.97901574 -96 68 C-99.04590618 68.09518457 -100.00868357 66.99204006 -102.25 64.9375 C-104.66488827 60.88393755 -104.44625822 58.68571132 -104 54 C-102.99124788 51.18990481 -102.66604583 50.33302292 -100 49 C-96.94439386 48.96922411 -93.90184383 49.0673802 -90.84765625 49.16015625 C-87.79554586 49.22993839 -87.79554586 49.22993839 -85 47 C-85.5295747 41.43946566 -86.3194018 36.23805924 -87.79296875 30.84765625 C-87.89544922 29.93306641 -87.89544922 29.93306641 -88 29 C-85.52579611 26.52579611 -84.03263699 26.41437295 -80.625 25.74609375 C-79.55765625 25.53146484 -78.4903125 25.31683594 -77.390625 25.09570312 C-76.27171875 24.87849609 -75.1528125 24.66128906 -74 24.4375 C-71.79119414 24.00108271 -69.58283543 23.56239419 -67.375 23.12109375 C-66.39273438 22.9295874 -65.41046875 22.73808105 -64.3984375 22.54077148 C-62.00296139 22.10128721 -62.00296139 22.10128721 -60 21 C-59.34444881 18.47266765 -59.34444881 18.47266765 -59 16 C-59.94875 15.87625 -60.8975 15.7525 -61.875 15.625 C-65 15 -65 15 -67 13 C-67.1875 10.625 -67.1875 10.625 -66 8 C-60.59951917 4.34880535 -55.38476405 3.43993298 -49 4 C-48.34 4.33 -47.68 4.66 -47 5 C-47 7.64 -47 10.28 -47 13 C-39.62478573 13.59934021 -33.67122841 12.24683229 -26.6875 9.875 C-24 9 -24 9 -22 9 C-21.67 8.34 -21.34 7.68 -21 7 C-19.25 6.32421875 -19.25 6.32421875 -17 5.6875 C-12.56352569 4.31970521 -8.87443391 2.3410448 -4.9453125 -0.109375 C-3 -1 -3 -1 0 0 Z " fill="#E2E3E4" transform="translate(199,40)"/>
<path d="M0 0 C3.54621849 12.85504202 3.54621849 12.85504202 3 19 C2.505 19.495 2.505 19.495 2 20 C-1.27151068 19.94980946 -4.53275223 19.80189435 -7.80078125 19.64453125 C-11.04956332 19.74313511 -11.04956332 19.74313511 -13.39453125 21.703125 C-16.10720714 25.58403358 -15.51514763 29.4446231 -15 34 C-14.14939987 36.97980201 -14.14939987 36.97980201 -13 39 C-9.69432511 39.85387105 -9.69432511 39.85387105 -6 40 C-4.6256709 38.70896357 -3.29103643 37.3743291 -2 36 C1.68136171 35.37338524 3.42393218 35.67847377 6.6875 37.5 C11.85344605 43.08480654 12.14533251 48.68748023 12 56 C10.8140625 56.15855469 9.628125 56.31710938 8.40625 56.48046875 C-1.31473172 57.85519382 -10.47475152 59.76464542 -19.77734375 62.9140625 C-22.18480889 63.7253053 -24.52614442 64.44198746 -27 65 C-25.6302836 68.99500618 -23.74277578 71.80009492 -21 75 C-30.53070175 79.13596491 -30.53070175 79.13596491 -36.1875 79.0625 C-37.53908203 79.04896484 -37.53908203 79.04896484 -38.91796875 79.03515625 C-39.60503906 79.02355469 -40.29210937 79.01195312 -41 79 C-41.66 77.68 -42.32 76.36 -43 75 C-42.01 74.01 -41.02 73.02 -40 72 C-41.24976756 68.34683329 -41.67098753 67.21934164 -45 65 C-47.71378472 64.72374906 -47.71378472 64.72374906 -50.76171875 64.8046875 C-52.43911133 64.81435547 -52.43911133 64.81435547 -54.15039062 64.82421875 C-55.31763672 64.84097656 -56.48488281 64.85773438 -57.6875 64.875 C-59.45577148 64.88853516 -59.45577148 64.88853516 -61.25976562 64.90234375 C-64.17338026 64.92593577 -67.08658892 64.9588546 -70 65 C-70.80815413 60.46426989 -71.10601658 56.23775733 -71.0625 51.625 C-71.05347656 50.37976563 -71.04445313 49.13453125 -71.03515625 47.8515625 C-71.02355469 46.91054687 -71.01195312 45.96953125 -71 45 C-71.66 45 -72.32 45 -73 45 C-73.33 44.34 -73.66 43.68 -74 43 C-76.64 43.33 -79.28 43.66 -82 44 C-84.06520632 40.90219052 -84.29477024 40.0459519 -84.3125 36.5 C-84.32925781 35.7265625 -84.34601563 34.953125 -84.36328125 34.15625 C-84 32 -84 32 -82.7109375 30.19921875 C-81 29 -81 29 -77.3125 29.3125 C-76.219375 29.539375 -75.12625 29.76625 -74 30 C-72.0243438 27.03651571 -71.73623141 26.31979627 -71.5859375 22.98828125 C-71.52792969 21.85229492 -71.52792969 21.85229492 -71.46875 20.69335938 C-71.42234375 19.51483398 -71.42234375 19.51483398 -71.375 18.3125 C-71.31699219 17.11657227 -71.31699219 17.11657227 -71.2578125 15.89648438 C-71.16367506 13.93136525 -71.08075368 11.9657146 -71 10 C-65.68450966 7.81483921 -60.95902318 7.6981574 -55.3125 7.75 C-54.45849609 7.74226563 -53.60449219 7.73453125 -52.72460938 7.7265625 C-51.90412109 7.72914062 -51.08363281 7.73171875 -50.23828125 7.734375 C-49.49618408 7.73663086 -48.75408691 7.73888672 -47.98950195 7.74121094 C-46 8 -46 8 -43 10 C-43.309375 10.556875 -43.61875 11.11375 -43.9375 11.6875 C-45.0663002 14.14430044 -45.6384857 16.32479417 -46 19 C-44.80691862 20.41200829 -44.80691862 20.41200829 -41.375 20.25 C-36.95651081 20.21809755 -33.9242849 18.96214245 -30 17 C-29.79859524 13.37471432 -30.14223235 11.13498292 -32 8 C-24.0335569 1.37973825 -10.10588268 -0.23886632 0 0 Z " fill="#F2F2F2" transform="translate(110,68)"/>
<path d="M0 0 C0.66 0 1.32 0 2 0 C1.3515625 1.953125 1.3515625 1.953125 0 4 C-2.6015625 4.609375 -2.6015625 4.609375 -5.625 4.75 C-6.62789063 4.80671875 -7.63078125 4.8634375 -8.6640625 4.921875 C-9.43492188 4.94765625 -10.20578125 4.9734375 -11 5 C-11.22396496 11.76871881 -10.82867161 17.48535739 -9 24 C-9 25.32 -9 26.64 -9 28 C-9.72590332 28.13575439 -10.45180664 28.27150879 -11.19970703 28.41137695 C-14.50995753 29.03584781 -17.81742139 29.67403488 -21.125 30.3125 C-22.26710937 30.52583984 -23.40921875 30.73917969 -24.5859375 30.95898438 C-30.16602723 32.04580418 -35.11335904 33.03497408 -40 36 C-39.505 36.8353125 -39.505 36.8353125 -39 37.6875 C-37.8690399 40.30284522 -37.84337026 42.1806646 -38 45 C-43.53751723 48.29894643 -47.52787492 49.66953018 -54 49 C-54.66 48.34 -55.32 47.68 -56 47 C-55.6442194 43.62008426 -54.64284201 40.95711562 -53 38 C-55.50364175 36.74817913 -57.17563655 36.90163758 -59.97265625 36.9375 C-61.44508789 36.94910156 -61.44508789 36.94910156 -62.94726562 36.9609375 C-63.97529297 36.97382812 -65.00332031 36.98671875 -66.0625 37 C-68.09500027 37.02539038 -70.12756066 37.04646374 -72.16015625 37.0625 C-73.51572632 37.07990234 -73.51572632 37.07990234 -74.89868164 37.09765625 C-77 37 -77 37 -78 36 C-78.63575022 30.41273364 -78.53619834 23.63709028 -75 19 C-70.65058086 17.09034314 -66.38379709 16.60292016 -61.6875 16.125 C-55.49135237 15.36728569 -50.44650038 14.04059371 -45 11 C-45.66 10.34 -46.32 9.68 -47 9 C-47 7.125 -47 7.125 -46 5 C-42.68581743 2.08998603 -40.11652832 0.73635045 -35.75 0.625 C-32 1 -32 1 -30 3 C-30 3.99 -30 4.98 -30 6 C-26.5621915 5.02191424 -23.12480729 4.04234559 -19.6875 3.0625 C-18.71103516 2.78470703 -17.73457031 2.50691406 -16.72851562 2.22070312 C-15.79072266 1.95322266 -14.85292969 1.68574219 -13.88671875 1.41015625 C-12.59060669 1.04096069 -12.59060669 1.04096069 -11.26831055 0.66430664 C-6.88410023 -0.619671 -4.53834338 -0.86904448 0 0 Z " fill="#6B6B6B" transform="translate(119,40)"/>
<path d="M0 0 C2.63862042 0.67686576 2.63862042 0.67686576 5.3125 -0.0625 C6.4571875 -0.2790625 6.4571875 -0.2790625 7.625 -0.5 C8.285 0.16 8.945 0.82 9.625 1.5 C9.51337219 6.29999567 7.70324479 9.34811011 5.07421875 13.1796875 C3.625 14.5 3.625 14.5 -0.375 14.5 C0.285 15.49 0.945 16.48 1.625 17.5 C1.42218003 23.44143204 -1.22604946 28.41492829 -4.19921875 33.4140625 C-5.6591821 36.00416359 -6.56954729 38.64430401 -7.375 41.5 C-9.025 41.17 -10.675 40.84 -12.375 40.5 C-12.045 38.19 -11.715 35.88 -11.375 33.5 C-15.335 34.16 -19.295 34.82 -23.375 35.5 C-22.59904875 32.39619499 -21.8481994 30.24997221 -20.375 27.5 C-22.7841705 28.00886646 -22.7841705 28.00886646 -25.375 29.5 C-25.9525 30.675625 -26.53 31.85125 -27.125 33.0625 C-28.0625 34.9453125 -28.0625 34.9453125 -29.375 36.5 C-32.38210673 37.40839683 -35.24579843 37.5468043 -38.375 37.5 C-36.89363568 32.19177785 -34.91637231 28.27125949 -30.3125 25.0625 C-28.1583595 23.55557512 -28.1583595 23.55557512 -27.0625 20.75 C-23.68935852 14.25357937 -18.44599058 10.32604286 -12.23046875 6.6953125 C-9.58438559 4.99067787 -7.56051784 2.74796121 -5.375 0.5 C-2.375 -0.5 -2.375 -0.5 0 0 Z " fill="#E0E0E1" transform="translate(58.375,2.5)"/>
<path d="M0 0 C2 0 2 0 3.55078125 1.5390625 C4.42283203 2.57160156 4.42283203 2.57160156 5.3125 3.625 C6.23675781 4.71554688 6.23675781 4.71554688 7.1796875 5.828125 C7.78039062 6.54484375 8.38109375 7.2615625 9 8 C9.51820312 8.59296875 10.03640625 9.1859375 10.5703125 9.796875 C14 13.75571429 14 13.75571429 14 16 C13.34 16 12.68 16 12 16 C13.32229412 18.51235884 14.42701199 20.55434266 16.6875 22.3125 C19.18059644 23.200554 19.18059644 23.200554 22.6328125 22.75 C27.77080235 22.71098319 31.02841245 24.8816084 35.1875 27.6875 C35.87263672 28.12255859 36.55777344 28.55761719 37.26367188 29.00585938 C40.45212226 31.07727806 43.00452988 33.00479872 45.6328125 35.7890625 C48.47753638 38.44601582 49.85924529 38.61960462 53.6875 38.6875 C58.81944444 38.81944444 58.81944444 38.81944444 61 41 C61 41.66 61 42.32 61 43 C36.93109231 39.52676522 15.97588708 31.43255014 -3 16 C-3.7321875 15.45472656 -4.464375 14.90945312 -5.21875 14.34765625 C-9.58601233 10.97376712 -11.01877596 8.45124467 -12 3 C-9.02448805 3.34078513 -7.40154701 3.62100207 -5.19140625 5.70703125 C-4.65386719 6.40183594 -4.11632813 7.09664062 -3.5625 7.8125 C-0.59874093 11.38058305 1.78916676 13.98612323 6 16 C8.65640899 15.14811632 8.65640899 15.14811632 11 14 C10.28972656 13.24074219 9.57945313 12.48148438 8.84765625 11.69921875 C7.91902166 10.69554298 6.99064991 9.69162399 6.0625 8.6875 C5.35963867 7.93823242 5.35963867 7.93823242 4.64257812 7.17382812 C2.44302897 4.78438984 1.03973187 3.11919562 0 0 Z " fill="#BBBCBD" transform="translate(49,183)"/>
<path d="M0 0 C2.0625 0.4375 2.0625 0.4375 4 1 C2.47987323 6.40489519 -1.27385218 9.98492628 -5 14 C-1.04991941 13.31620454 1.63457018 12.21156817 5 10 C5.66 10.66 6.32 11.32 7 12 C-3.62460843 23.44328545 -15.21961107 32.59688783 -29 40 C-29.66 40 -30.32 40 -31 40 C-31 39.34 -31 38.68 -31 38 C-31.61488281 38.2165625 -32.22976562 38.433125 -32.86328125 38.65625 C-33.67152344 38.9346875 -34.47976562 39.213125 -35.3125 39.5 C-36.11300781 39.7784375 -36.91351563 40.056875 -37.73828125 40.34375 C-40 41 -40 41 -43 41 C-42 38 -42 38 -40.25 36.875 C-37.19976086 35.68879589 -34.2789053 35 -31 35 C-30.835 34.401875 -30.67 33.80375 -30.5 33.1875 C-28.46606937 30.22135117 -26.31044787 29.76943084 -22.9765625 28.66015625 C-20.8710193 27.95692147 -18.95078648 27.05667601 -17 26 C-17 24.68 -17 23.36 -17 22 C-16.28199219 21.80277344 -15.56398437 21.60554688 -14.82421875 21.40234375 C-11.11649657 19.56130327 -9.17923187 16.83868708 -6.8125 13.5625 C-6.37486328 12.97662109 -5.93722656 12.39074219 -5.48632812 11.78710938 C-3.58773616 9.23343072 -1.76524741 6.64787112 0 4 C-0.9075 4.515625 -1.815 5.03125 -2.75 5.5625 C-6 7 -6 7 -8.3125 6.875 C-10 6 -10 6 -11 3 C-10.34 3 -9.68 3 -9 3 C-9 3.66 -9 4.32 -9 5 C-7.686298 4.3566152 -6.37407102 3.71021785 -5.0625 3.0625 C-4.33160156 2.70285156 -3.60070312 2.34320313 -2.84765625 1.97265625 C-1.03750973 1.13628173 -1.03750973 1.13628173 0 0 Z " fill="#898A8C" transform="translate(210,174)"/>
<path d="M0 0 C0.99 0.33 1.98 0.66 3 1 C1.80100302 4.0831351 0.52299523 7.06279492 -1 10 C2.11332248 9.33131686 2.11332248 9.33131686 3.1875 6.9375 C3.455625 6.298125 3.72375 5.65875 4 5 C4.99 5.33 5.98 5.66 7 6 C5.35 8.31 3.7 10.62 2 13 C2.66 13.33 3.32 13.66 4 14 C4.0825 13.401875 4.165 12.80375 4.25 12.1875 C5 10 5 10 6.9375 8.625 C9.68489586 6.46038508 10.11613881 4.31447946 11 1 C11.99 1.33 12.98 1.66 14 2 C12.125 6.75 12.125 6.75 11 9 C13.52363988 8.37466625 13.52363988 8.37466625 16 7 C16.89386164 4.45224694 16.89386164 4.45224694 17 2 C18.32 2.66 19.64 3.32 21 4 C20.67 4.33 20.34 4.66 20 5 C20.99 5.66 21.98 6.32 23 7 C21.68 7.33 20.36 7.66 19 8 C19 8.99 19 9.98 19 11 C20.32 11.33 21.64 11.66 23 12 C22.01 12.495 22.01 12.495 21 13 C20.67 13.99 20.34 14.98 20 16 C21.65 16 23.3 16 25 16 C23.68 16.33 22.36 16.66 21 17 C21 18.32 21 19.64 21 21 C23.31 21 25.62 21 28 21 C28 21.66 28 22.32 28 23 C23.38 23.66 18.76 24.32 14 25 C11 13.375 11 13.375 11 10 C10.01 10.495 10.01 10.495 9 11 C9 12.65 9 14.3 9 16 C7.68 15.67 6.36 15.34 5 15 C5.33 18.63 5.66 22.26 6 26 C5.34 25.67 4.68 25.34 4 25 C3.40644386 22.35139573 3.25790731 19.70802678 3 17 C1.35 17.33 -0.3 17.66 -2 18 C-2 14.89448334 -1.4606285 13.64738916 0 11 C-2.475 10.01 -2.475 10.01 -5 9 C-4.01 8.67 -3.02 8.34 -2 8 C-1.19787372 6.12612784 -1.19787372 6.12612784 -0.8125 3.9375 C-0.65394531 3.20402344 -0.49539062 2.47054687 -0.33203125 1.71484375 C-0.22246094 1.14894531 -0.11289063 0.58304688 0 0 Z " fill="#807D7E" transform="translate(77,152)"/>
<path d="M0 0 C3.875 1.875 3.875 1.875 5 3 C5.16796875 4.9609375 5.16796875 4.9609375 5.1875 7.375 C5.20167969 8.16648437 5.21585938 8.95796875 5.23046875 9.7734375 C5 12 5 12 3 15 C-0.0390625 15.73046875 -0.0390625 15.73046875 -3.625 16.1875 C-4.81351563 16.34605469 -6.00203125 16.50460938 -7.2265625 16.66796875 C-8.14179687 16.77753906 -9.05703125 16.88710938 -10 17 C-11.823321 23.15370839 -12.2361959 28.59646678 -12 35 C-12.99 35.495 -12.99 35.495 -14 36 C-14.03738281 37.18078125 -14.07476562 38.3615625 -14.11328125 39.578125 C-14.17895149 41.13544788 -14.24539847 42.69273814 -14.3125 44.25 C-14.33505859 45.02730469 -14.35761719 45.80460937 -14.38085938 46.60546875 C-14.54044471 50.00028404 -14.74677211 52.48088282 -16.25 55.5625 C-18 57 -18 57 -20.26171875 57.171875 C-21.06222656 57.03265625 -21.86273438 56.8934375 -22.6875 56.75 C-23.49574219 56.62109375 -24.30398437 56.4921875 -25.13671875 56.359375 C-25.75160156 56.24078125 -26.36648437 56.1221875 -27 56 C-27.02696365 57.79158489 -27.04637917 59.58328473 -27.0625 61.375 C-27.07410156 62.37273437 -27.08570313 63.37046875 -27.09765625 64.3984375 C-27.18006602 66.98432453 -27.18006602 66.98432453 -26 69 C-23.36 68.67 -20.72 68.34 -18 68 C-20.25270587 70.00240521 -21.60577544 70.94368221 -24.625 71.375 C-25.40875 71.25125 -26.1925 71.1275 -27 71 C-29.23465229 67.64802157 -29.27108649 66.42208754 -29.25 62.5 C-29.25515625 61.5409375 -29.2603125 60.581875 -29.265625 59.59375 C-29 57 -29 57 -27 54 C-24.8359375 53.70703125 -24.8359375 53.70703125 -22.375 53.8125 C-21.55773438 53.83957031 -20.74046875 53.86664063 -19.8984375 53.89453125 C-19.27195312 53.92933594 -18.64546875 53.96414062 -18 54 C-16.8838344 50.28570102 -16.6875805 46.60838492 -16.4375 42.75 C-16.35371094 41.48671875 -16.26992188 40.2234375 -16.18359375 38.921875 C-16.12300781 37.95765625 -16.06242187 36.9934375 -16 36 C-17.485 36.495 -17.485 36.495 -19 37 C-21.22818441 37.06937062 -23.45834524 37.08457084 -25.6875 37.0625 C-27.45673828 37.04896484 -27.45673828 37.04896484 -29.26171875 37.03515625 C-30.16535156 37.02355469 -31.06898437 37.01195312 -32 37 C-32 36.67 -32 36.34 -32 36 C-27.05 35.67 -22.1 35.34 -17 35 C-17.1570443 30.33275631 -17.1570443 30.33275631 -17.36035156 25.66748047 C-17.44565962 20.59440305 -16.12855146 17.90489571 -13 14 C-10.60175053 11.60175053 -9.72664782 11.68563796 -6.4375 11.4375 C-3.41952212 11.41550697 -3.41952212 11.41550697 -1 10 C-0.76712992 8.31816052 -0.58735834 6.6287584 -0.4375 4.9375 C-0.35371094 4.01839844 -0.26992188 3.09929688 -0.18359375 2.15234375 C-0.09271484 1.08693359 -0.09271484 1.08693359 0 0 Z " fill="#C8C9CA" transform="translate(54,42)"/>
<path d="M0 0 C0.66 0.33 1.32 0.66 2 1 C2.27375681 3.05317607 2.53302575 5.10922742 2.72265625 7.171875 C3.04534542 10.46239557 3.47244029 13.72655645 3.9375 17 C4.09089844 18.11375 4.24429688 19.2275 4.40234375 20.375 C4.69818359 21.674375 4.69818359 21.674375 5 23 C5.66 23.33 6.32 23.66 7 24 C4.1875 25.5625 4.1875 25.5625 1 27 C0.01 26.67 -0.98 26.34 -2 26 C-1.34 25.67 -0.68 25.34 0 25 C-0.7187807 17.95792295 -0.7187807 17.95792295 -2 11 C-4.53349684 13.53349684 -5.65568244 16.13671584 -7.1875 19.375 C-7.73792969 20.51710937 -8.28835937 21.65921875 -8.85546875 22.8359375 C-9.97501966 25.93094172 -10.26145304 27.03959577 -9 30 C-11.31 30.66 -13.62 31.32 -16 32 C-15.95939453 30.49179688 -15.95939453 30.49179688 -15.91796875 28.953125 C-15.9991597 25.04049458 -16.50549422 21.57396584 -17.3125 17.75 C-17.55613281 16.54859375 -17.79976562 15.3471875 -18.05078125 14.109375 C-18.82331886 10.70684274 -18.82331886 10.70684274 -22 8 C-17.05 6.515 -17.05 6.515 -12 5 C-12.33 5.66 -12.66 6.32 -13 7 C-13.66 7 -14.32 7 -15 7 C-13.68 12.28 -12.36 17.56 -11 23 C-9.865625 20.6075 -8.73125 18.215 -7.5625 15.75 C-7.20615479 15.00331055 -6.84980957 14.25662109 -6.48266602 13.48730469 C-6.20092529 12.88821289 -5.91918457 12.28912109 -5.62890625 11.671875 C-5.34088135 11.0644043 -5.05285645 10.45693359 -4.75610352 9.83105469 C-3.96329541 7.91111254 -3.45524597 6.0241838 -3 4 C-4.32 3.67 -5.64 3.34 -7 3 C-4.69631264 1.93347808 -2.35981813 0.93578995 0 0 Z " fill="#494648" transform="translate(184,116)"/>
<path d="M0 0 C2.73441171 4.32213464 2.87100292 8.07540783 1.9375 13.0625 C0.0625 15.6875 0.0625 15.6875 -2.0625 17.0625 C-2.7225 17.0625 -3.3825 17.0625 -4.0625 17.0625 C-4.0625 17.7225 -4.0625 18.3825 -4.0625 19.0625 C0.90661366 17.93552957 0.90661366 17.93552957 4.9375 15.0625 C5.2675 17.0425 5.5975 19.0225 5.9375 21.0625 C2.3075 21.3925 -1.3225 21.7225 -5.0625 22.0625 C-5.1875 19.1875 -5.1875 19.1875 -5.0625 16.0625 C-4.4025 15.4025 -3.7425 14.7425 -3.0625 14.0625 C-2.17989593 9.33360029 -2.46400986 5.96930324 -5.125 1.9375 C-7.9997292 -0.26816762 -7.9997292 -0.26816762 -11.75 0.0625 C-15.31789113 0.75633331 -15.31789113 0.75633331 -17.0625 4.0625 C-17.55300364 9.26183854 -16.89648909 12.65407252 -14.0625 17.0625 C-13.0725 17.3925 -12.0825 17.7225 -11.0625 18.0625 C-11.0625 20.0425 -11.0625 22.0225 -11.0625 24.0625 C-16.0125 24.5575 -16.0125 24.5575 -21.0625 25.0625 C-21.0625 23.4125 -21.0625 21.7625 -21.0625 20.0625 C-19.0825 20.0625 -17.1025 20.0625 -15.0625 20.0625 C-16.031875 19.299375 -17.00125 18.53625 -18 17.75 C-20.48336332 15.79501185 -21.0146672 15.20599841 -22.0625 12.0625 C-22.57624941 7.52438023 -22.42631304 5.61341689 -19.875 1.75 C-13.89635345 -3.96292893 -7.01245503 -4.43645114 0 0 Z " fill="#4C4849" transform="translate(82.0625,98.9375)"/>
<path d="M0 0 C-0.33 0.33 -0.66 0.66 -1 1 C-1.29702014 2.62904268 -1.53812946 4.26837631 -1.75390625 5.91015625 C-1.88603516 6.89951172 -2.01816406 7.88886719 -2.15429688 8.90820312 C-2.28900391 9.94912109 -2.42371094 10.99003906 -2.5625 12.0625 C-2.70107422 13.10728516 -2.83964844 14.15207031 -2.98242188 15.22851562 C-3.32539267 17.81853644 -3.66440631 20.40901469 -4 23 C-4.66 23 -5.32 23 -6 23 C-7.8588679 20.79189025 -9.37694278 18.3918738 -11 16 C-11.99 18.97 -12.98 21.94 -14 25 C-17.699731 23.76675633 -18.53805732 22.32348882 -20.875 19.25 C-23.74284021 15.55976444 -26.60116395 12.19890452 -30 9 C-30.66 8.34 -31.32 7.68 -32 7 C-29.36 6.34 -26.72 5.68 -24 5 C-23.87818359 6.07314453 -23.87818359 6.07314453 -23.75390625 7.16796875 C-22.8248809 10.6578308 -21.25141366 12.55784089 -18.9375 15.3125 C-17.83728516 16.63701172 -17.83728516 16.63701172 -16.71484375 17.98828125 C-16.14894531 18.65214844 -15.58304688 19.31601563 -15 20 C-13.96821161 16.79334585 -13.96821161 16.79334585 -14 13 C-16.34042516 9.52077736 -19.54770169 7.3015322 -23 5 C-18.375 2.875 -18.375 2.875 -15 4 C-14.375 6 -14.375 6 -14 8 C-13.67 8.33 -13.34 8.66 -13 9 C-11.99782936 5.41672247 -11.99782936 5.41672247 -13 2 C-11.02 1.67 -9.04 1.34 -7 1 C-7.33 1.66 -7.66 2.32 -8 3 C-8.66 3 -9.32 3 -10 3 C-10.10933628 4.39403756 -10.18619553 5.79063776 -10.25 7.1875 C-10.31960937 8.35345703 -10.31960937 8.35345703 -10.390625 9.54296875 C-10.09146886 12.73016517 -10.09146886 12.73016517 -6 17 C-5.34 12.05 -4.68 7.1 -4 2 C-4.66 2 -5.32 2 -6 2 C-6 1.34 -6 0.68 -6 0 C-2.25 -1.125 -2.25 -1.125 0 0 Z " fill="#4F4C4D" transform="translate(165,65)"/>
<path d="M0 0 C4.13830989 0.30096799 6.51847024 0.67898016 10 3 C11.32 3 12.64 3 14 3 C14 3.66 14 4.32 14 5 C14.66 5 15.32 5 16 5 C16 5.66 16 6.32 16 7 C14.68 6.67 13.36 6.34 12 6 C12.99 7.485 12.99 7.485 14 9 C13.67 9.99 13.34 10.98 13 12 C10.03 8.7 7.06 5.4 4 2 C6.76648794 5.82995895 6.76648794 5.82995895 9.25 8.4375 C11 11 11 11 10.8125 13.75 C10 16 10 16 9 17 C6.64453125 17.28515625 6.64453125 17.28515625 4 17 C0.11547568 13.75587448 -1.85868676 10.09517765 -2.5 5.125 C-2 2 -2 2 0 0 Z " fill="#454244" transform="translate(189,14)"/>
<path d="M0 0 C2.17379717 2.39867274 3.01556996 4.07047311 2.9609375 7.33203125 C2.71379984 9.57392287 2.40127775 11.78088567 2 14 C2.90492188 13.76603516 2.90492188 13.76603516 3.828125 13.52734375 C4.62734375 13.33269531 5.4265625 13.13804687 6.25 12.9375 C7.03890625 12.74027344 7.8278125 12.54304687 8.640625 12.33984375 C11.10394822 11.98502733 12.65604132 12.23122456 15 13 C14.34 14.32 13.68 15.64 13 17 C13.70125 16.67 14.4025 16.34 15.125 16 C18.26003116 14.90955438 20.70563182 14.84677357 24 15 C20.54507617 17.30328255 17.04350211 18.44840609 13.125 19.6875 C12.41730469 19.92533203 11.70960938 20.16316406 10.98046875 20.40820312 C6.96093455 21.68442395 4.06147486 22.31400657 0 21 C0 19.68 0 18.36 0 17 C0.66 16.67 1.32 16.34 2 16 C1.34 15.67 0.68 15.34 0 15 C0.33 13.35 0.66 11.7 1 10 C0.01 9.67 -0.98 9.34 -2 9 C-1.01 8.34 -0.02 7.68 1 7 C0.34 5.02 -0.32 3.04 -1 1 C-2.01320312 1.34224609 -2.01320312 1.34224609 -3.046875 1.69140625 C-4.38492188 2.12259766 -4.38492188 2.12259766 -5.75 2.5625 C-6.63171875 2.85253906 -7.5134375 3.14257812 -8.421875 3.44140625 C-11.07834316 4.01697435 -12.47031106 3.89248371 -15 3 C-13.25531628 2.29911844 -11.50398839 1.61475991 -9.75 0.9375 C-8.77546875 0.55464844 -7.8009375 0.17179688 -6.796875 -0.22265625 C-3.93114643 -1.01913668 -2.70102209 -1.14898712 0 0 Z " fill="#949597" transform="translate(148,202)"/>
<path d="M0 0 C3 1 3 1 4.16796875 3.00390625 C6.40140228 8.60888311 7.72882798 12.96113962 7 19 C5.5 21.5 5.5 21.5 4 23 C-0.42350331 22.49445676 -2.78071602 21.04984798 -6 18 C-7.875 15.375 -7.875 15.375 -9 13 C-8.67 12.34 -8.34 11.68 -8 11 C-7.29875 11.969375 -6.5975 12.93875 -5.875 13.9375 C-3.72838538 16.55157225 -3.14164606 16.96258406 0.3125 17.875 C1.199375 17.91625 2.08625 17.9575 3 18 C3 13.82812805 2.94191867 13.49958551 0.5 10.5625 C-1.29628196 8.19120427 -1.96949821 7.19608297 -2.4375 4.1875 C-2 2 -2 2 0 0 Z " fill="#3E3B3C" transform="translate(221,48)"/>
<path d="M0 0 C0.99 0.33 1.98 0.66 3 1 C3.05422947 2.4370809 3.09289723 3.87475462 3.125 5.3125 C3.14820312 6.11300781 3.17140625 6.91351563 3.1953125 7.73828125 C3 10 3 10 1 13 C-2.0390625 13.73046875 -2.0390625 13.73046875 -5.625 14.1875 C-6.81351563 14.34605469 -8.00203125 14.50460938 -9.2265625 14.66796875 C-10.14179687 14.77753906 -11.05703125 14.88710938 -12 15 C-13.823321 21.15370839 -14.2361959 26.59646678 -14 33 C-15.32 33 -16.64 33 -18 33 C-18.47276791 25.12053479 -18.21511332 19.76972745 -14 13 C-12.26043342 11.26043342 -9.8063378 11.62809614 -7.4375 11.4375 C-4.7459375 11.2209375 -4.7459375 11.2209375 -2 11 C-1.34 7.37 -0.68 3.74 0 0 Z " fill="#9B9C9E" transform="translate(56,44)"/>
<path d="M0 0 C1.39613065 0.14295891 2.79189308 0.28951558 4.1875 0.4375 C4.96480469 0.51871094 5.74210937 0.59992188 6.54296875 0.68359375 C7.35378906 0.78800781 8.16460937 0.89242187 9 1 C9.76828125 1.07734375 10.5365625 1.1546875 11.328125 1.234375 C15.23629763 2.35426073 18.23401388 4.52477945 21.5625 6.8125 C22.22185547 7.25142578 22.88121094 7.69035156 23.56054688 8.14257812 C26.37585063 10.04679865 28.7954688 11.7788341 31.11328125 14.28515625 C33.61995614 16.5634798 35.28464413 16.5259598 38.625 16.625 C43.80555556 16.80555556 43.80555556 16.80555556 46 19 C46 19.66 46 20.32 46 21 C27.65957447 18 27.65957447 18 19 15 C19.33 14.34 19.66 13.68 20 13 C22.5625 12.375 22.5625 12.375 25 12 C22.80448693 10.45712574 20.59674111 8.94175731 18.375 7.4375 C17.75753906 6.99986328 17.14007813 6.56222656 16.50390625 6.11132812 C12.49572797 3.42067035 12.49572797 3.42067035 7.71875 3.30859375 C6.8215625 3.53675781 5.924375 3.76492187 5 4 C2.125 2.625 2.125 2.625 0 1 C0 0.67 0 0.34 0 0 Z " fill="#A5A6A8" transform="translate(64,205)"/>
<path d="M0 0 C0 1.65 0 3.3 0 5 C-0.99 5.495 -0.99 5.495 -2 6 C-1.34 7.98 -0.68 9.96 0 12 C-6.02190033 16.94211131 -13.33857767 18.49965798 -21 18 C-21 17.34 -21 16.68 -21 16 C-20.01 16 -19.02 16 -18 16 C-18 15.34 -18 14.68 -18 14 C-14.04 12.68 -10.08 11.36 -6 10 C-6 7.84365964 -6.4465236 6.07553648 -7 4 C-2.25 0 -2.25 0 0 0 Z " fill="#5C5C5C" transform="translate(79,42)"/>
<path d="M0 0 C0.66 0 1.32 0 2 0 C2.79706768 3.49992696 3.11863027 6.7142231 3.09765625 10.30078125 C3.09443359 11.27724609 3.09121094 12.25371094 3.08789062 13.25976562 C3.07951172 14.26716797 3.07113281 15.27457031 3.0625 16.3125 C3.05798828 17.33923828 3.05347656 18.36597656 3.04882812 19.42382812 C3.03708184 21.94927882 3.02065565 24.47460905 3 27 C2.67 27 2.34 27 2 27 C1.67 23.37 1.34 19.74 1 16 C-0.66342837 17.66342837 -0.36048097 19.7825709 -0.5625 22.0625 C-0.68818359 23.44115234 -0.68818359 23.44115234 -0.81640625 24.84765625 C-0.87699219 25.55792969 -0.93757812 26.26820312 -1 27 C-1.33 27 -1.66 27 -2 27 C-2.33 24.69 -2.66 22.38 -3 20 C-4.32 20.33 -5.64 20.66 -7 21 C-7 20.34 -7 19.68 -7 19 C-5.01310269 17.64721885 -3.01254782 16.31431695 -1 15 C-0.67 14.34 -0.34 13.68 0 13 C-0.9590625 13.2784375 -0.9590625 13.2784375 -1.9375 13.5625 C-2.618125 13.706875 -3.29875 13.85125 -4 14 C-5 13 -5 13 -5.125 9.625 C-5 6 -5 6 -4 3 C-2.68 3.66 -1.36 4.32 0 5 C0 3.35 0 1.7 0 0 Z " fill="#8C8E90" transform="translate(238,94)"/>
<path d="M0 0 C-0.99 0.33 -1.98 0.66 -3 1 C-2.19152631 4.45928743 -1.37754006 7.91725429 -0.5625 11.375 C-0.33240234 12.35984375 -0.10230469 13.3446875 0.13476562 14.359375 C0.35712891 15.30039063 0.57949219 16.24140625 0.80859375 17.2109375 C1.01282959 18.08024902 1.21706543 18.94956055 1.42749023 19.84521484 C1.9295171 22.02782093 1.9295171 22.02782093 3 24 C0.69 24.66 -1.62 25.32 -4 26 C-3.95939453 24.49179688 -3.95939453 24.49179688 -3.91796875 22.953125 C-3.9991597 19.04049458 -4.50549422 15.57396584 -5.3125 11.75 C-5.55613281 10.54859375 -5.79976562 9.3471875 -6.05078125 8.109375 C-6.96475575 5.1154503 -7.56952138 3.87902549 -10 2 C-8.71211992 1.46987262 -7.41953322 0.9511671 -6.125 0.4375 C-5.40570313 0.14746094 -4.68640625 -0.14257812 -3.9453125 -0.44140625 C-2 -1 -2 -1 0 0 Z " fill="#413E3F" transform="translate(172,122)"/>
<path d="M0 0 C0.33 1.32 0.66 2.64 1 4 C-0.95519384 5.17192047 -2.9142539 6.3373929 -4.875 7.5 C-5.96554688 8.1496875 -7.05609375 8.799375 -8.1796875 9.46875 C-11 11 -11 11 -13 11 C-13 10.34 -13 9.68 -13 9 C-13.61488281 9.2165625 -14.22976562 9.433125 -14.86328125 9.65625 C-15.67152344 9.9346875 -16.47976562 10.213125 -17.3125 10.5 C-18.11300781 10.7784375 -18.91351563 11.056875 -19.73828125 11.34375 C-22 12 -22 12 -25 12 C-24 9 -24 9 -22.25 7.875 C-19.19976086 6.68879589 -16.2789053 6 -13 6 C-12.773125 5.360625 -12.54625 4.72125 -12.3125 4.0625 C-11 2 -11 2 -8.6875 1.25 C-6.10717377 1.00996965 -3.58890403 1 -1 1 C-0.67 0.67 -0.34 0.34 0 0 Z " fill="#747476" transform="translate(192,203)"/>
<path d="M0 0 C4.75 0.875 4.75 0.875 7 2 C6.67 2.66 6.34 3.32 6 4 C4.68 3.34 3.36 2.68 2 2 C2.59451032 4.47012389 2.59451032 4.47012389 4 7 C6.60233623 8.46179869 6.60233623 8.46179869 9.625 9.3125 C10.62789062 9.63863281 11.63078125 9.96476563 12.6640625 10.30078125 C13.43492188 10.53152344 14.20578125 10.76226562 15 11 C15 11.66 15 12.32 15 13 C14.34 13 13.68 13 13 13 C14.65 17.62 16.3 22.24 18 27 C17.34 27 16.68 27 16 27 C15.7525 26.38125 15.505 25.7625 15.25 25.125 C13.79371361 22.64931313 12.62187494 22.04874998 10 21 C10.66 19.68 11.32 18.36 12 17 C11.01 16.67 10.02 16.34 9 16 C8.67 16.66 8.34 17.32 8 18 C8 16.68 8 15.36 8 14 C8.99 14 9.98 14 11 14 C11.33 13.34 11.66 12.68 12 12 C11.05125 11.855625 10.1025 11.71125 9.125 11.5625 C6 11 6 11 4 10 C4.30035156 10.77085937 4.60070312 11.54171875 4.91015625 12.3359375 C5.29042969 13.33882812 5.67070312 14.34171875 6.0625 15.375 C6.63677734 16.87160156 6.63677734 16.87160156 7.22265625 18.3984375 C8 21 8 21 7 23 C0 5.97969543 0 5.97969543 0 0 Z " fill="#706E6F" transform="translate(12,136)"/>
<path d="M0 0 C2.31 0.66 4.62 1.32 7 2 C7 3.65 7 5.3 7 7 C7.99 7 8.98 7 10 7 C10 7.66 10 8.32 10 9 C7.69 8.67 5.38 8.34 3 8 C3.26676204 9.98491642 3.26676204 9.98491642 4 12 C4.99 12.33 5.98 12.66 7 13 C7.05399736 14.45792884 7.09279177 15.91642712 7.125 17.375 C7.14820313 18.18710938 7.17140625 18.99921875 7.1953125 19.8359375 C7 22 7 22 5 24 C3 23.8125 3 23.8125 1 23 C-1 20 -1 20 -0.625 17.8125 C-0.41875 17.214375 -0.2125 16.61625 0 16 C0.268125 16.639375 0.53625 17.27875 0.8125 17.9375 C1.88667752 20.33131686 1.88667752 20.33131686 5 21 C5 19.35 5 17.7 5 16 C3.68 16 2.36 16 1 16 C0.92652344 15.04287109 0.92652344 15.04287109 0.8515625 14.06640625 C0.77679688 13.24011719 0.70203125 12.41382812 0.625 11.5625 C0.55539062 10.73878906 0.48578125 9.91507813 0.4140625 9.06640625 C0.20910156 8.04353516 0.20910156 8.04353516 0 7 C-0.66 6.67 -1.32 6.34 -2 6 C-1.67 5.34 -1.34 4.68 -1 4 C1.31 4.66 3.62 5.32 6 6 C4.60804085 3.2160817 2.84424221 3.02101003 0 2 C0 1.34 0 0.68 0 0 Z " fill="#686667" transform="translate(12,87)"/>
<path d="M0 0 C1.32 0.66 2.64 1.32 4 2 C3.67 2.33 3.34 2.66 3 3 C3.99 3.66 4.98 4.32 6 5 C4.68 5.33 3.36 5.66 2 6 C2 6.99 2 7.98 2 9 C3.32 9.33 4.64 9.66 6 10 C5.01 10.495 5.01 10.495 4 11 C3.67 11.99 3.34 12.98 3 14 C4.65 14 6.3 14 8 14 C6.68 14.33 5.36 14.66 4 15 C4 16.32 4 17.64 4 19 C6.31 19 8.62 19 11 19 C11 19.66 11 20.32 11 21 C6.38 21.66 1.76 22.32 -3 23 C-3.33 21.02 -3.66 19.04 -4 17 C-3.34 17.33 -2.68 17.66 -2 18 C-2 18.66 -2 19.32 -2 20 C-0.68 20 0.64 20 2 20 C1.690625 19.319375 1.38125 18.63875 1.0625 17.9375 C-1.13253901 11.86886275 -1.34991569 6.24336006 0 0 Z " fill="#504D4E" transform="translate(94,154)"/>
<path d="M0 0 C3.96 0 7.92 0 12 0 C11.17948718 14.35897436 11.17948718 14.35897436 9 20 C8.34 20.33 7.68 20.66 7 21 C7.33 16.05 7.66 11.1 8 6 C5.03 5.67 2.06 5.34 -1 5 C-0.67 3.35 -0.34 1.7 0 0 Z " fill="#383536" transform="translate(176,172)"/>
<path d="M0 0 C0.99 0.33 1.98 0.66 3 1 C1.93456457 7.10203928 0.33401905 11.66084108 -2.82421875 16.98046875 C-4.13967265 19.23990286 -5.1261756 21.53740396 -6 24 C-6.99 24 -7.98 24 -9 24 C-8.54795511 17.6283196 -6.93966344 13.09989036 -3.9375 7.5 C-3.37192383 6.40945312 -3.37192383 6.40945312 -2.79492188 5.296875 C-1.87427046 3.52549507 -0.93867864 1.76189339 0 0 Z " fill="#A5A8A9" transform="translate(57,19)"/>
<path d="M0 0 C-1.60435173 8.36342614 -3.62288668 16.20318679 -9 23 C-9.66 23.33 -10.32 23.66 -11 24 C-10.46884894 19.48521602 -8.63379708 16.65333143 -6 13 C-6.33 12.67 -6.66 12.34 -7 12 C-7.99 12.66 -8.98 13.32 -10 14 C-9.71345437 8.26908731 -6.4796684 0 0 0 Z " fill="#474547" transform="translate(236,147)"/>
<path d="M0 0 C6.0546875 -0.1953125 6.0546875 -0.1953125 8 0 C10 2 10 2 10 5 C13.3 4.34 16.6 3.68 20 3 C18 7 18 7 15 9 C12.95703125 9.1953125 12.95703125 9.1953125 10.8125 9.125 C8.9253125 9.063125 8.9253125 9.063125 7 9 C7.33 7.35 7.66 5.7 8 4 C5.36 4.33 2.72 4.66 0 5 C0 3.35 0 1.7 0 0 Z " fill="#515151" transform="translate(79,41)"/>
<path d="M0 0 C0.99 0.33 1.98 0.66 3 1 C2.52391771 5.99886408 1.35315301 9.21695558 -2 13 C-4.02795013 13.79952038 -5.95137431 14.24110948 -8.09375 14.6328125 C-10.29809803 15.05742052 -12.06607792 15.87187878 -14 17 C-13.25 12.25 -13.25 12.25 -11 10 C-9.6078125 9.9690625 -9.6078125 9.9690625 -8.1875 9.9375 C-4.29844286 8.79365966 -4.0165164 7.8864188 -2.125 4.4375 C-1.3961477 2.96833545 -0.68114255 1.49188303 0 0 Z " fill="#A3A5A6" transform="translate(65,3)"/>
<path d="M0 0 C0.99 0.33 1.98 0.66 3 1 C1.80100302 4.0831351 0.52299523 7.06279492 -1 10 C2.11332248 9.33131686 2.11332248 9.33131686 3.1875 6.9375 C3.455625 6.298125 3.72375 5.65875 4 5 C4.99 5.33 5.98 5.66 7 6 C5.35 8.31 3.7 10.62 2 13 C2.99 13.66 3.98 14.32 5 15 C5.51171875 17.6015625 5.51171875 17.6015625 5.6875 20.625 C5.78611328 22.12933594 5.78611328 22.12933594 5.88671875 23.6640625 C5.92410156 24.43492187 5.96148437 25.20578125 6 26 C5.34 25.67 4.68 25.34 4 25 C3.40644386 22.35139573 3.25790731 19.70802678 3 17 C1.35 17.33 -0.3 17.66 -2 18 C-2 14.89448334 -1.4606285 13.64738916 0 11 C-2.475 10.01 -2.475 10.01 -5 9 C-4.01 8.67 -3.02 8.34 -2 8 C-1.19787372 6.12612784 -1.19787372 6.12612784 -0.8125 3.9375 C-0.65394531 3.20402344 -0.49539062 2.47054687 -0.33203125 1.71484375 C-0.22246094 1.14894531 -0.11289063 0.58304688 0 0 Z " fill="#514E4F" transform="translate(77,152)"/>
<path d="M0 0 C0.12181641 1.07314453 0.12181641 1.07314453 0.24609375 2.16796875 C1.1751191 5.6578308 2.74858634 7.55784089 5.0625 10.3125 C5.79597656 11.19550781 6.52945313 12.07851562 7.28515625 12.98828125 C7.85105469 13.65214844 8.41695312 14.31601563 9 15 C9.33 14.01 9.66 13.02 10 12 C10.66 12.33 11.32 12.66 12 13 C11.34 15.31 10.68 17.62 10 20 C6.300269 18.76675633 5.46194268 17.32348882 3.125 14.25 C0.25715979 10.55976444 -2.60116395 7.19890452 -6 4 C-6.66 3.34 -7.32 2.68 -8 2 C-2.25 0 -2.25 0 0 0 Z " fill="#4E4A4B" transform="translate(141,70)"/>
<path d="M0 0 C0.33 0.66 0.66 1.32 1 2 C1.66 2 2.32 2 3 2 C3.11138159 7.45769811 2.91657981 12.61509359 2 18 C-2.73831776 13.74766355 -2.73831776 13.74766355 -3.875 10.5 C-4.06184535 6.76309304 -3.93775472 4.08779547 -1.4375 1.1875 C-0.963125 0.795625 -0.48875 0.40375 0 0 Z " fill="#D9D9DA" transform="translate(158,65)"/>
<path d="M0 0 C4.24234863 0.48922093 5.98261025 1.53624028 8.6875 4.8125 C9.26886719 5.49957031 9.85023437 6.18664062 10.44921875 6.89453125 C11.91946987 8.89066565 13.09511122 10.69180776 14 13 C13.67 13.66 13.34 14.32 13 15 C8.31157566 12.80036479 3.33906629 9.91787808 1.10546875 5.05078125 C0.5625 3.125 0.5625 3.125 0 0 Z " fill="#C4C5C6" transform="translate(37,186)"/>
<path d="M0 0 C0.66 0.66 1.32 1.32 2 2 C1.45652174 8.08695652 1.45652174 8.08695652 0 11 C0.7425 10.649375 1.485 10.29875 2.25 9.9375 C5.21122875 8.9279902 6.12062561 9.12019116 9 10 C7.73160474 10.50615298 6.46016898 11.00469099 5.1875 11.5 C4.47980469 11.7784375 3.77210938 12.056875 3.04296875 12.34375 C1 13 1 13 -2 13 C-1.67 9.37 -1.34 5.74 -1 2 C-11.9470789 2.75005687 -11.9470789 2.75005687 -21.375 8 C-23.14070073 10.10902905 -23.14070073 10.10902905 -25 13 C-24.78600145 9.25502546 -24.07843077 8.07843077 -21.375 5.375 C-14.74573387 0.40696841 -8.18182953 -1.04477757 0 0 Z " fill="#B2B2B3" transform="translate(176,94)"/>
<path d="M0 0 C-0.39832031 0.51949219 -0.79664063 1.03898438 -1.20703125 1.57421875 C-5.46443923 7.05410613 -5.46443923 7.05410613 -9 13 C-8.67 13.66 -8.34 14.32 -8 15 C-8.99 15.99 -9.98 16.98 -11 18 C-11 17.34 -11 16.68 -11 16 C-11.66 15.67 -12.32 15.34 -13 15 C-12.34 14.01 -11.68 13.02 -11 12 C-11.66 11.34 -12.32 10.68 -13 10 C-12.43224464 8.70141061 -11.84508337 7.41129559 -11.25 6.125 C-10.92515625 5.40570312 -10.6003125 4.68640625 -10.265625 3.9453125 C-7.6811653 -0.02709778 -4.4908114 -0.24948952 0 0 Z " fill="#BCBBBD" transform="translate(51,10)"/>
<path d="M0 0 C3.84685385 1.24762828 6.02929405 2.3870391 8 6 C7.67 6.99 7.34 7.98 7 9 C6.14535156 8.98839844 5.29070312 8.97679687 4.41015625 8.96484375 C3.30542969 8.95582031 2.20070313 8.94679687 1.0625 8.9375 C-0.59072266 8.92009766 -0.59072266 8.92009766 -2.27734375 8.90234375 C-4.91447634 8.68737429 -4.91447634 8.68737429 -6 10 C-10.9212722 10.3785594 -14.10705907 10.18513349 -18 7 C-18 6.01 -18 5.02 -18 4 C-16.02 4 -14.04 4 -12 4 C-13.98 4.99 -13.98 4.99 -16 6 C-13.01002175 7.49498913 -10.29957225 7.11577446 -7 7 C-6.01 6.67 -5.02 6.34 -4 6 C-1.73828125 6.12109375 -1.73828125 6.12109375 0.6875 6.4375 C1.49574219 6.53933594 2.30398437 6.64117187 3.13671875 6.74609375 C3.75160156 6.82988281 4.36648437 6.91367188 5 7 C2.525 3.535 2.525 3.535 0 0 Z " fill="#615F60" transform="translate(111,205)"/>
<path d="M0 0 C0.33 0.66 0.66 1.32 1 2 C1.66 2 2.32 2 3 2 C3.33 8.6 3.66 15.2 4 22 C6.97 22 9.94 22 13 22 C13 22.33 13 22.66 13 23 C4.56748286 25.57935818 -3.48889398 24.97677301 -12 23 C-12.33 22.34 -12.66 21.68 -13 21 C-5.575 21.99 -5.575 21.99 2 23 C1.34 15.41 0.68 7.82 0 0 Z " fill="#C8C8C9" transform="translate(36,111)"/>
<path d="M0 0 C2.0625 0 2.0625 0 4 1 C6.38420461 3.55450494 7 4.4404523 7 8 C4.69 8.33 2.38 8.66 0 9 C1.32 7.68 2.64 6.36 4 5 C3.01 4.67 2.02 4.34 1 4 C0.236875 4.639375 -0.52625 5.27875 -1.3125 5.9375 C-4.50281781 8.38588343 -6.08014044 8.3646381 -10 8 C-10.33 7.01 -10.66 6.02 -11 5 C-9.39125 4.87625 -9.39125 4.87625 -7.75 4.75 C-3.59824967 3.91964993 -2.82072577 2.91799217 0 0 Z " fill="#B1B0B1" transform="translate(114,32)"/>
<path d="M0 0 C0.7425 0.845625 1.485 1.69125 2.25 2.5625 C4.65257852 5.23492141 4.65257852 5.23492141 7.125 5 C9.07301506 4.11961838 9.07301506 4.11961838 10.25 2.4375 C12.68579088 0.43667178 14.93572633 0.52286093 18.00390625 0.65234375 C22.32119641 1.40427883 24.35603347 4.1117703 26.8125 7.5 C28.5584344 12.6459119 28.23520866 17.61633516 28 23 C26.35 23 24.7 23 23 23 C24.32 22.67 25.64 22.34 27 22 C26.74273307 20.10227809 26.46856661 18.20684323 26.1875 16.3125 C26.03667969 15.25675781 25.88585937 14.20101562 25.73046875 13.11328125 C24.6085455 8.33160834 23.09432925 5.72955283 19 3 C16.04230823 2.49989476 16.04230823 2.49989476 13 3 C12.360625 3.680625 11.72125 4.36125 11.0625 5.0625 C9 7 9 7 5.375 6.9375 C2 6 2 6 0 3 C0 2.01 0 1.02 0 0 Z " fill="#B8B7B8" transform="translate(95,102)"/>
<path d="M0 0 C0.99 0.66 1.98 1.32 3 2 C3.1875 4.625 3.1875 4.625 3 7 C4.98 7 6.96 7 9 7 C9 7.33 9 7.66 9 8 C5.625 8.125 5.625 8.125 2 8 C1.34 7.34 0.68 6.68 0 6 C0 4.68 0 3.36 0 2 C-3.63 2.33 -7.26 2.66 -11 3 C-10.484375 3.763125 -9.96875 4.52625 -9.4375 5.3125 C-8.963125 6.199375 -8.48875 7.08625 -8 8 C-8.33 8.99 -8.66 9.98 -9 11 C-10.32 11 -11.64 11 -13 11 C-13 8.36 -13 5.72 -13 3 C-8.46370773 0.3446094 -5.25370771 -0.4956328 0 0 Z " fill="#BCBCBE" transform="translate(129,8)"/>
<path d="M0 0 C0.33 4.95 0.66 9.9 1 15 C0.01 15.66 -0.98 16.32 -2 17 C-4.14336161 13.5233662 -4.21277626 10.78770805 -4.125 6.75 C-4.10695312 5.67234375 -4.08890625 4.5946875 -4.0703125 3.484375 C-4.04710937 2.66453125 -4.02390625 1.8446875 -4 1 C-1 0 -1 0 0 0 Z " fill="#85878A" transform="translate(248,83)"/>
<path d="M0 0 C0.66 0 1.32 0 2 0 C1.39453125 1.95703125 1.39453125 1.95703125 0 4 C-2.86328125 4.57421875 -2.86328125 4.57421875 -6.3125 4.6875 C-10.32791936 4.84775049 -14.07894977 5.09514226 -18 6 C-17 3 -17 3 -14.70703125 1.796875 C-5.26209677 -1.6191067 -5.26209677 -1.6191067 0 0 Z " fill="#7B7B7B" transform="translate(119,40)"/>
<path d="M0 0 C3.25537019 3.07940424 6.14619454 5.8804323 8 10 C7.6875 12.8125 7.6875 12.8125 7 15 C3.41193683 11.61127367 0.54315201 8.23858668 -2 4 C-2 3.34 -2 2.68 -2 2 C-1.34 2 -0.68 2 0 2 C0 1.34 0 0.68 0 0 Z " fill="#949698" transform="translate(225,30)"/>
<path d="M0 0 C0.66 0 1.32 0 2 0 C2.79706768 3.49992696 3.11863027 6.7142231 3.09765625 10.30078125 C3.09443359 11.27724609 3.09121094 12.25371094 3.08789062 13.25976562 C3.07951172 14.26716797 3.07113281 15.27457031 3.0625 16.3125 C3.05798828 17.33923828 3.05347656 18.36597656 3.04882812 19.42382812 C3.03708184 21.94927882 3.02065565 24.47460905 3 27 C2.67 27 2.34 27 2 27 C1.67 23.37 1.34 19.74 1 16 C-0.66342837 17.66342837 -0.36048097 19.7825709 -0.5625 22.0625 C-0.68818359 23.44115234 -0.68818359 23.44115234 -0.81640625 24.84765625 C-0.87699219 25.55792969 -0.93757812 26.26820312 -1 27 C-1.33 27 -1.66 27 -2 27 C-2.33 24.69 -2.66 22.38 -3 20 C-4.32 20.33 -5.64 20.66 -7 21 C-7 20.34 -7 19.68 -7 19 C-5.02678947 17.6273318 -3.02456848 16.29572383 -1 15 C1.35650179 13.0869689 1.35650179 13.0869689 1.1875 9.75 C1.02059174 6.41183477 0.6392895 3.27635867 0 0 Z " fill="#4C4B4C" transform="translate(238,94)"/>
<path d="M0 0 C0.99 0.33 1.98 0.66 3 1 C3.33 3.97 3.66 6.94 4 10 C5.32 9.67 6.64 9.34 8 9 C7.67 10.98 7.34 12.96 7 15 C3.71996319 14.43447641 2.02678473 13.67167078 0 11 C-0.29296875 8.30078125 -0.29296875 8.30078125 -0.1875 5.3125 C-0.16042969 4.31863281 -0.13335937 3.32476562 -0.10546875 2.30078125 C-0.07066406 1.54152344 -0.03585937 0.78226562 0 0 Z " fill="#C5C5C6" transform="translate(10,93)"/>
<path d="M0 0 C2.31 0.33 4.62 0.66 7 1 C7 1.66 7 2.32 7 3 C6.34 3 5.68 3 5 3 C6.65 7.62 8.3 12.24 10 17 C9.34 17 8.68 17 8 17 C7.7525 16.38125 7.505 15.7625 7.25 15.125 C5.79371361 12.64931313 4.62187494 12.04874998 2 11 C2.66 9.68 3.32 8.36 4 7 C3.01 6.67 2.02 6.34 1 6 C0.67 6.66 0.34 7.32 0 8 C0 6.68 0 5.36 0 4 C0.99 4 1.98 4 3 4 C3.33 3.34 3.66 2.68 4 2 C2.68 1.67 1.36 1.34 0 1 C0 0.67 0 0.34 0 0 Z " fill="#5B5859" transform="translate(20,146)"/>
<path d="M0 0 C-3.35890666 3.35890666 -8.12984104 2.7964892 -12.71484375 3.2421875 C-16.04885352 3.69715354 -16.04885352 3.69715354 -17.87890625 5.9453125 C-18.60948941 7.2842907 -19.31785421 8.63570842 -20 10 C-21 9 -21 9 -21.0625 5.9375 C-21.041875 4.968125 -21.02125 3.99875 -21 3 C-13.84466021 0.39241413 -7.59762024 -0.38999191 0 0 Z " fill="#C4C4C5" transform="translate(143,194)"/>
<path d="M0 0 C1.51606198 2.01239179 3.02170401 4.02995605 4.5 6.0703125 C4.995 6.74835937 5.49 7.42640625 6 8.125 C6.495 8.80820312 6.99 9.49140625 7.5 10.1953125 C9.05868663 12.24518466 9.05868663 12.24518466 12 14 C11 15 11 15 8.64453125 15.28515625 C6 15 6 15 4.19921875 13.49609375 C0.70553367 8.73854327 -0.74011597 5.92092773 0 0 Z " fill="#413E3F" transform="translate(187,16)"/>
<path d="M0 0 C0 0.66 0 1.32 0 2 C-0.99 2 -1.98 2 -3 2 C-2.67 2.66 -2.34 3.32 -2 4 C-1.95977609 6.3329866 -1.95679753 8.66706666 -2 11 C-4 8 -4 8 -4 3 C-8.29 3.99 -12.58 4.98 -17 6 C-17 5.01 -17 4.02 -17 3 C-11.36905348 0.88839505 -6.02120612 0 0 0 Z " fill="#515151" transform="translate(61,56)"/>
<path d="M0 0 C-5.96663457 2.73470751 -11.79087725 3.63579316 -18.27539062 4.26513672 C-22.17147182 4.66587111 -25.44552224 5.33664245 -29 7 C-29.33 5.68 -29.66 4.36 -30 3 C-29.43603516 2.9498877 -28.87207031 2.89977539 -28.29101562 2.84814453 C-25.69337763 2.61359122 -23.09673353 2.36935554 -20.5 2.125 C-19.613125 2.04636719 -18.72625 1.96773437 -17.8125 1.88671875 C-13.58999556 1.483097 -9.57014296 0.97041029 -5.46875 -0.1328125 C-2 -1 -2 -1 0 0 Z " fill="#DFDFDF" transform="translate(164,173)"/>
<path d="M0 0 C0.99 0.33 1.98 0.66 3 1 C3.05422947 2.4370809 3.09289723 3.87475462 3.125 5.3125 C3.14820313 6.11300781 3.17140625 6.91351563 3.1953125 7.73828125 C3 10 3 10 1 13 C-1.625 13.1875 -1.625 13.1875 -4 13 C-4 12.34 -4 11.68 -4 11 C-3.34 11 -2.68 11 -2 11 C-1.34 7.37 -0.68 3.74 0 0 Z " fill="#A1A3A5" transform="translate(56,44)"/>
<path d="M0 0 C3 1 3 1 4.8125 3.8125 C6 7 6 7 5.1875 9.375 C4.795625 9.91125 4.40375 10.4475 4 11 C3.195625 10.34 2.39125 9.68 1.5625 9 C-0.58961915 6.89745486 -0.58961915 6.89745486 -2 7 C-2.125 4.625 -2.125 4.625 -2 2 C-1.34 1.34 -0.68 0.68 0 0 Z " fill="#575557" transform="translate(221,48)"/>
<path d="M0 0 C1.77007714 -0.08114106 3.54122098 -0.13925505 5.3125 -0.1875 C6.29863281 -0.22230469 7.28476563 -0.25710937 8.30078125 -0.29296875 C11 0 11 0 12.85546875 1.51171875 C13.23316406 2.00285156 13.61085937 2.49398437 14 3 C13.195625 3.12375 12.39125 3.2475 11.5625 3.375 C10.2940625 3.684375 10.2940625 3.684375 9 4 C8.67 4.66 8.34 5.32 8 6 C7.01 5.67 6.02 5.34 5 5 C4.67 4.34 4.34 3.68 4 3 C1.97536745 2.34786708 1.97536745 2.34786708 0 2 C0 1.34 0 0.68 0 0 Z " fill="#6A6A6B" transform="translate(121,221)"/>
<path d="M0 0 C3.91807225 2.27794898 5.552511 5.65592437 7.6875 9.5625 C5.765625 9.22265625 5.765625 9.22265625 3.6875 8.5625 C2.4375 6 2.4375 6 1.6875 3.5625 C-0.2925 4.5525 -0.2925 4.5525 -2.3125 5.5625 C-2.3125 4.5725 -2.3125 3.5825 -2.3125 2.5625 C-2.76625 3.3875 -3.22 4.2125 -3.6875 5.0625 C-4.22375 5.8875 -4.76 6.7125 -5.3125 7.5625 C-5.9725 7.5625 -6.6325 7.5625 -7.3125 7.5625 C-7.3125 6.9025 -7.3125 6.2425 -7.3125 5.5625 C-6.6525 5.5625 -5.9925 5.5625 -5.3125 5.5625 C-5.18875 4.758125 -5.065 3.95375 -4.9375 3.125 C-4.73125 2.279375 -4.525 1.43375 -4.3125 0.5625 C-2.3125 -0.4375 -2.3125 -0.4375 0 0 Z " fill="#BDBEBE" transform="translate(192.3125,71.4375)"/>
<path d="M0 0 C0.33 0 0.66 0 1 0 C1.20086443 3.71599191 1.1519437 4.77208445 -1 8 C0.32 7.34 1.64 6.68 3 6 C2.34 7.32 1.68 8.64 1 10 C0.01 10 -0.98 10 -2 10 C-2 8.35 -2 6.7 -2 5 C-4.64 5.33 -7.28 5.66 -10 6 C-9.34 4.68 -8.68 3.36 -8 2 C-7.05125 2.04125 -6.1025 2.0825 -5.125 2.125 C-1.89755144 2.34973818 -1.89755144 2.34973818 0 0 Z " fill="#646163" transform="translate(27,50)"/>
<path d="M0 0 C3.3125 0.625 3.3125 0.625 7 2 C8.9375 5.125 8.9375 5.125 10 8 C5.87240487 7.5309551 2.94713214 7.06048338 0 4 C0 2.68 0 1.36 0 0 Z " fill="#CCCCCD" transform="translate(14,138)"/>
<path d="M0 0 C2.31 0.66 4.62 1.32 7 2 C7 3.65 7 5.3 7 7 C7.99 7 8.98 7 10 7 C10 7.66 10 8.32 10 9 C1.42857143 8.14285714 1.42857143 8.14285714 -2 6 C-1.67 5.34 -1.34 4.68 -1 4 C1.31 4.66 3.62 5.32 6 6 C4.60804085 3.2160817 2.84424221 3.02101003 0 2 C0 1.34 0 0.68 0 0 Z " fill="#4B4748" transform="translate(12,87)"/>
<path d="M0 0 C0.66 0.33 1.32 0.66 2 1 C-2.83077612 10.59077164 -2.83077612 10.59077164 -7.75 12.3125 C-8.8225 12.539375 -9.895 12.76625 -11 13 C-12.51792644 15.49641128 -12.51792644 15.49641128 -13 18 C-13.66 18 -14.32 18 -15 18 C-14.64930333 15.40484463 -14.33376494 13.47429754 -12.8125 11.3125 C-11 10 -11 10 -8.125 9.3125 C-3.64060005 7.42905202 -2.20075367 4.18727469 0 0 Z " fill="#C5C6C8" transform="translate(64,2)"/>
<path d="M0 0 C2 2 2 2 2 6 C-1.63 6.33 -5.26 6.66 -9 7 C-9 5.35 -9 3.7 -9 2 C-8.67 2.66 -8.34 3.32 -8 4 C-5.64828869 3.40138258 -3.3140622 2.73075648 -1 2 C-0.67 1.34 -0.34 0.68 0 0 Z " fill="#474344" transform="translate(86,114)"/>
<path d="M0 0 C2.29225435 0.11371497 4.58382388 0.24130964 6.875 0.375 C8.15117188 0.44460937 9.42734375 0.51421875 10.7421875 0.5859375 C14 1 14 1 16 3 C16 3.66 16 4.32 16 5 C10.39 4.01 4.78 3.02 -1 2 C-0.67 1.34 -0.34 0.68 0 0 Z " fill="#9A9B9C" transform="translate(94,221)"/>
<path d="M0 0 C4.37653129 0.47620289 6.06538005 1.66899889 8.8125 5.0625 C9.41707031 5.79597656 10.02164063 6.52945313 10.64453125 7.28515625 C11.09183594 7.85105469 11.53914063 8.41695312 12 9 C11.01 10.485 11.01 10.485 10 12 C9.01 10.02 8.02 8.04 7 6 C6.01 6 5.02 6 4 6 C1.8125 4.125 1.8125 4.125 0 2 C0 1.34 0 0.68 0 0 Z " fill="#858485" transform="translate(37,186)"/>
<path d="M0 0 C0.66 0 1.32 0 2 0 C1.42683305 3.28409174 0.53366486 4.80488187 -1.94140625 7.015625 C-2.52470703 7.54414063 -3.10800781 8.07265625 -3.70898438 8.6171875 C-4.32064453 9.15601563 -4.93230469 9.69484375 -5.5625 10.25 C-6.17802734 10.80429688 -6.79355469 11.35859375 -7.42773438 11.9296875 C-8.94501675 13.29406545 -10.47162594 14.64805855 -12 16 C-12.66 15.67 -13.32 15.34 -14 15 C-13.24074219 14.25234375 -12.48148438 13.5046875 -11.69921875 12.734375 C-10.69517864 11.73971844 -9.69127983 10.74491923 -8.6875 9.75 C-8.18798828 9.25886719 -7.68847656 8.76773438 -7.17382812 8.26171875 C-5.04102599 6.14304114 -3.04962863 4.06766522 -1.26953125 1.640625 C-0.85058594 1.09921875 -0.43164062 0.5578125 0 0 Z " fill="#909193" transform="translate(235,128)"/>
<path d="M0 0 C0 1.65 0 3.3 0 5 C-0.99 5.495 -0.99 5.495 -2 6 C-2.33 6.99 -2.66 7.98 -3 9 C-4.32 8.34 -5.64 7.68 -7 7 C-6.61402985 4.20171644 -6.19863427 3.1794116 -4.0625 1.25 C-2 0 -2 0 0 0 Z " fill="#676767" transform="translate(79,42)"/>
<path d="M0 0 C5.05663427 3.42066436 7.83507897 7.91002391 11 13 C8.17288273 12.63722831 7.10634802 12.10850956 5.078125 10.0390625 C4.47484375 9.24242187 3.8715625 8.44578125 3.25 7.625 C2.63640625 6.83351563 2.0228125 6.04203125 1.390625 5.2265625 C0 3 0 3 0 0 Z " fill="#A7A8AA" transform="translate(188,16)"/>
<path d="M0 0 C0.5775 0.165 1.155 0.33 1.75 0.5 C4.26664369 1.14462031 4.26664369 1.14462031 8 1 C8 1.66 8 2.32 8 3 C8.66 3 9.32 3 10 3 C10 3.66 10 4.32 10 5 C8.68 4.67 7.36 4.34 6 4 C6.99 5.485 6.99 5.485 8 7 C7.67 7.99 7.34 8.98 7 10 C5.82739389 8.71372289 4.6620717 7.42080217 3.5 6.125 C2.8503125 5.40570312 2.200625 4.68640625 1.53125 3.9453125 C0 2 0 2 0 0 Z " fill="#3F3C3D" transform="translate(195,16)"/>
<path d="M0 0 C-0.33 0.33 -0.66 0.66 -1 1 C-1.400383 3.85528607 -1.7518227 6.69736487 -2.0625 9.5625 C-2.15337891 10.36880859 -2.24425781 11.17511719 -2.33789062 12.00585938 C-2.56247449 14.00347377 -2.78173236 16.0016856 -3 18 C-5.49310643 14.26034036 -5.0603261 12.70929359 -4.625 8.3125 C-4.51414063 7.13300781 -4.40328125 5.95351562 -4.2890625 4.73828125 C-4.19367188 3.83464844 -4.09828125 2.93101563 -4 2 C-4.66 2 -5.32 2 -6 2 C-6 1.34 -6 0.68 -6 0 C-2.25 -1.125 -2.25 -1.125 0 0 Z " fill="#676566" transform="translate(165,65)"/>
<path d="M0 0 C-0.61875 0.04125 -1.2375 0.0825 -1.875 0.125 C-2.57625 0.41375 -3.2775 0.7025 -4 1 C-4.70164642 2.98799818 -5.36156567 4.9908096 -6 7 C-7.0059248 9.14215073 -8.04794389 11.2677163 -9.125 13.375 C-9.66382813 14.43460938 -10.20265625 15.49421875 -10.7578125 16.5859375 C-11.16773438 17.38257812 -11.57765625 18.17921875 -12 19 C-13.02362719 16.33610275 -13.10424058 15.26441513 -12.0390625 12.5625 C-11.57242188 11.716875 -11.10578125 10.87125 -10.625 10 C-8.70099651 6.5084396 -8.70099651 6.5084396 -7.4609375 2.75 C-7.30882812 2.1725 -7.15671875 1.595 -7 1 C-4.53721199 -0.231394 -2.7204945 -0.07159196 0 0 Z " fill="#C3C4C6" transform="translate(62,16)"/>
<path d="M0 0 C2 1 4 2 6 3 C6 3.66 6 4.32 6 5 C6.66 5 7.32 5 8 5 C8.33 5.99 8.66 6.98 9 8 C6.1875 8.3125 6.1875 8.3125 3 8 C0.68858396 5.14925356 0 3.6860549 0 0 Z " fill="#898789" transform="translate(49,196)"/>
<path d="M0 0 C-0.33 1.32 -0.66 2.64 -1 4 C-1.99 3.34 -2.98 2.68 -4 2 C-6.60911673 1.63322321 -9.19072265 1.49618999 -11.8203125 1.34375 C-12.53960937 1.2303125 -13.25890625 1.116875 -14 1 C-14.33 0.34 -14.66 -0.32 -15 -1 C-13.25181409 -1.22304441 -11.50129677 -1.4278645 -9.75 -1.625 C-8.77546875 -1.74101562 -7.8009375 -1.85703125 -6.796875 -1.9765625 C-3.86570607 -2.00112537 -2.45471036 -1.5312717 0 0 Z " fill="#E4E4E4" transform="translate(68,134)"/>
<path d="M0 0 C1.65 1.65 3.3 3.3 5 5 C5.66 4.67 6.32 4.34 7 4 C8.60725635 7.21451269 8.05748185 10.43612536 8 14 C7.87625 13.071875 7.87625 13.071875 7.75 12.125 C7.21964484 9.83849644 7.21964484 9.83849644 5.125 9.0625 C2.23487031 7.61743515 1.39618848 5.86218639 0 3 C0 2.01 0 1.02 0 0 Z " fill="#444243" transform="translate(220,53)"/>
<path d="M0 0 C-0.50450684 0.26216309 -1.00901367 0.52432617 -1.52880859 0.79443359 C-3.81290489 1.98409997 -6.09396567 3.17947397 -8.375 4.375 C-9.1690625 4.7875 -9.963125 5.2 -10.78125 5.625 C-11.92207031 6.22441406 -11.92207031 6.22441406 -13.0859375 6.8359375 C-14.1385376 7.38580322 -14.1385376 7.38580322 -15.21240234 7.94677734 C-17.16163413 8.99478038 -17.16163413 8.99478038 -19 11 C-19.99 10.34 -20.98 9.68 -22 9 C-21 7 -21 7 -19.25 6.32421875 C-18.5075 6.11410156 -17.765 5.90398438 -17 5.6875 C-12.56352569 4.31970521 -8.87443391 2.3410448 -4.9453125 -0.109375 C-3 -1 -3 -1 0 0 Z " fill="#D3D4D5" transform="translate(199,40)"/>
<path d="M0 0 C0.99 0.33 1.98 0.66 3 1 C3.520895 6.10477099 3.60263447 9.79747008 0.5 14.0625 C-0.7375 15.5165625 -0.7375 15.5165625 -2 17 C-2 13.68455701 -1.32773835 11.01998611 -0.5 7.8125 C-0.2215625 6.72582031 0.056875 5.63914062 0.34375 4.51953125 C0.66859375 3.27236328 0.66859375 3.27236328 1 2 C0.34 1.67 -0.32 1.34 -1 1 C-0.67 0.67 -0.34 0.34 0 0 Z " fill="#615E60" transform="translate(136,23)"/>
<path d="M0 0 C-1 1 -1 1 -4.0625 1.0625 C-5.031875 1.041875 -6.00125 1.02125 -7 1 C-7 1.66 -7 2.32 -7 3 C-6.360625 3.2475 -5.72125 3.495 -5.0625 3.75 C-3 5 -3 5 -2.1875 7.0625 C-2.125625 7.701875 -2.06375 8.34125 -2 9 C-3 10 -3 10 -5.5625 10.0625 C-6.366875 10.041875 -7.17125 10.02125 -8 10 C-6.68 8.68 -5.36 7.36 -4 6 C-4.61875 5.731875 -5.2375 5.46375 -5.875 5.1875 C-8 4 -8 4 -10 1 C-3.375 -1.125 -3.375 -1.125 0 0 Z " fill="#999B9E" transform="translate(191,2)"/>
<path d="M0 0 C0.33 0.66 0.66 1.32 1 2 C0.67 2.66 0.34 3.32 0 4 C-1.258125 3.87625 -2.51625 3.7525 -3.8125 3.625 C-4.87404297 3.52058594 -4.87404297 3.52058594 -5.95703125 3.4140625 C-8 3 -8 3 -11 1 C-3.29268293 -1.51969981 -3.29268293 -1.51969981 0 0 Z " fill="#AFB0B1" transform="translate(94,218)"/>
<path d="M0 0 C0 0.66 0 1.32 0 2 C-1.60149886 2.67305018 -3.20631029 3.33822227 -4.8125 4 C-5.70582031 4.37125 -6.59914063 4.7425 -7.51953125 5.125 C-10 6 -10 6 -13 6 C-12 3 -12 3 -10.29296875 2.05078125 C-9.59816406 1.80714844 -8.90335937 1.56351563 -8.1875 1.3125 C-7.50042969 1.06113281 -6.81335938 0.80976562 -6.10546875 0.55078125 C-4 0 -4 0 0 0 Z " fill="#A0A0A0" transform="translate(77,52)"/>
<path d="M0 0 C2.97 1.98 2.97 1.98 6 4 C5.67 4.99 5.34 5.98 5 7 C3.35 7.33 1.7 7.66 0 8 C-0.66 6.02 -1.32 4.04 -2 2 C-1.34 1.34 -0.68 0.68 0 0 Z " fill="#A9AAAC" transform="translate(181,4)"/>
<path d="M0 0 C5.94 0.99 5.94 0.99 12 2 C9.09907498 3.93395001 8.10325263 4.30131941 4.8125 4.625 C3.554375 4.74875 2.29625 4.8725 1 5 C0.67 3.35 0.34 1.7 0 0 Z " fill="#858688" transform="translate(148,219)"/>
<path d="M0 0 C2.75457718 0.37994168 3.82020574 0.8073633 5.75 2.875 C7 5 7 5 7 8 C4.69 8.33 2.38 8.66 0 9 C1.32 7.68 2.64 6.36 4 5 C3.34 4.360625 2.68 3.72125 2 3.0625 C0 1 0 1 0 0 Z " fill="#ABABAB" transform="translate(114,32)"/>
<path d="M0 0 C0.99 0 1.98 0 3 0 C2.979375 0.886875 2.95875 1.77375 2.9375 2.6875 C2.99286219 5.62169631 3.3305734 8.15493696 4 11 C3.34 11 2.68 11 2 11 C1.34 9.68 0.68 8.36 0 7 C-1.98 7.99 -1.98 7.99 -4 9 C-3.2884375 7.88625 -3.2884375 7.88625 -2.5625 6.75 C-1.22130673 4.38949985 -0.487688 2.63351523 0 0 Z " fill="#5C595A" transform="translate(145,26)"/>
<path d="M0 0 C0.99 0 1.98 0 3 0 C3 0.66 3 1.32 3 2 C3.99 2.33 4.98 2.66 6 3 C2.535 4.485 2.535 4.485 -1 6 C-0.67 7.32 -0.34 8.64 0 10 C-0.99 9.67 -1.98 9.34 -3 9 C-4.1875 6.4375 -4.1875 6.4375 -5 4 C-3.02 3.67 -1.04 3.34 1 3 C0.67 2.01 0.34 1.02 0 0 Z " fill="#4C494A" transform="translate(128,23)"/>
<path d="M0 0 C2.70165032 2.70165032 2 4.29811832 2 8 C1 10.1875 1 10.1875 0 12 C-0.33 11.34 -0.66 10.68 -1 10 C-1.66 9.67 -2.32 9.34 -3 9 C-2.34 8.01 -1.68 7.02 -1 6 C-1.66 5.34 -2.32 4.68 -3 4 C-2.01 2.68 -1.02 1.36 0 0 Z " fill="#6F6D6E" transform="translate(41,16)"/>
<path d="M0 0 C0.33 1.32 0.66 2.64 1 4 C0.01 4.66 -0.98 5.32 -2 6 C-5 5 -8 4 -11 3 C-10.67 2.34 -10.34 1.68 -10 1 C-9.36191406 1.01160156 -8.72382813 1.02320313 -8.06640625 1.03515625 C-7.24011719 1.04417969 -6.41382813 1.05320313 -5.5625 1.0625 C-4.32693359 1.07990234 -4.32693359 1.07990234 -3.06640625 1.09765625 C-1.00836062 1.23267348 -1.00836062 1.23267348 0 0 Z " fill="#676769" transform="translate(192,203)"/>
<path d="M0 0 C2 0 2 0 3.55078125 1.5390625 C4.42283203 2.57160156 4.42283203 2.57160156 5.3125 3.625 C5.92867187 4.34945312 6.54484375 5.07390625 7.1796875 5.8203125 C7.78039063 6.53960937 8.38109375 7.25890625 9 8 C9.77730469 8.92425781 9.77730469 8.92425781 10.5703125 9.8671875 C11.71958835 11.23975123 12.8607561 12.6190983 14 14 C13.67 14.66 13.34 15.32 13 16 C11.01492207 13.90114686 9.03689607 11.79636118 7.0625 9.6875 C6.49853516 9.09259766 5.93457031 8.49769531 5.35351562 7.88476562 C4.81533203 7.30791016 4.27714844 6.73105469 3.72265625 6.13671875 C3.22515869 5.60780029 2.72766113 5.07888184 2.21508789 4.53393555 C1 3 1 3 0 0 Z " fill="#B5B6B8" transform="translate(49,183)"/>
<path d="M0 0 C1.13671875 1.7109375 1.13671875 1.7109375 2 4 C1.20703125 6.2890625 1.20703125 6.2890625 -0.1875 8.625 C-0.63480469 9.40101563 -1.08210937 10.17703125 -1.54296875 10.9765625 C-3 13 -3 13 -6 15 C-5.46497672 10.45230212 -3.54517003 7.73821848 -1 4 C-0.23060319 1.77397385 -0.23060319 1.77397385 0 0 Z " fill="#4F4E50" transform="translate(231,156)"/>
<path d="M0 0 C2.64 0.66 5.28 1.32 8 2 C7.67 2.99 7.34 3.98 7 5 C6.01 4.67 5.02 4.34 4 4 C3.67 5.32 3.34 6.64 3 8 C1.0549 5.08235 0.54723683 3.37462715 0 0 Z " fill="#DADADB" transform="translate(16,146)"/>
<path d="M0 0 C1.32 0 2.64 0 4 0 C4.33 2.31 4.66 4.62 5 7 C3.68 7 2.36 7 1 7 C0.67 4.69 0.34 2.38 0 0 Z " fill="#B2B1B2" transform="translate(90,162)"/>
<path d="M0 0 C0.99 0 1.98 0 3 0 C1.76075855 4.95696581 0.21422242 7.11658466 -4 10 C-3.52449439 8.51965236 -3.04448784 7.04074979 -2.5625 5.5625 C-2.29566406 4.73878906 -2.02882813 3.91507813 -1.75390625 3.06640625 C-1 1 -1 1 0 0 Z " fill="#767474" transform="translate(33,45)"/>
<path d="M0 0 C3.66786393 1.50349377 5.68910393 3.63728792 8.25 6.625 C8.95640625 7.44226563 9.6628125 8.25953125 10.390625 9.1015625 C10.92171875 9.72804688 11.4528125 10.35453125 12 11 C11.01 11.66 10.02 12.32 9 13 C8.62875 12.34 8.2575 11.68 7.875 11 C5.47293698 7.15669917 2.75595775 3.59433972 0 0 Z " fill="#9B9C9F" transform="translate(191,15)"/>
<path d="M0 0 C2 1 2 1 2.625 2.8125 C3 5 3 5 3 9 C1.68 9 0.36 9 -1 9 C-1.09765625 2.84765625 -1.09765625 2.84765625 -1 1 C-0.67 0.67 -0.34 0.34 0 0 Z " fill="#AAAAAB" transform="translate(117,10)"/>
<path d="M0 0 C1.32 0.66 2.64 1.32 4 2 C3.67 2.33 3.34 2.66 3 3 C3.99 3.66 4.98 4.32 6 5 C5.360625 5.12375 4.72125 5.2475 4.0625 5.375 C3.0415625 5.684375 3.0415625 5.684375 2 6 C1.67 6.66 1.34 7.32 1 8 C0.01 7.34 -0.98 6.68 -2 6 C-1.34 4.02 -0.68 2.04 0 0 Z " fill="#5A5758" transform="translate(94,154)"/>
<path d="M0 0 C1.32 0.66 2.64 1.32 4 2 C4 3.98 4 5.96 4 8 C3.67 8 3.34 8 3 8 C3 6.35 3 4.7 3 3 C2.01 3.495 2.01 3.495 1 4 C0.34444881 6.52733235 0.34444881 6.52733235 0 9 C0.99 9.33 1.98 9.66 3 10 C1.68 10 0.36 10 -1 10 C-1.125 3.375 -1.125 3.375 0 0 Z " fill="#484647" transform="translate(234,97)"/>
<path d="M0 0 C2.31 0.33 4.62 0.66 7 1 C6.67 2.32 6.34 3.64 6 5 C4.35 5 2.7 5 1 5 C0.67 3.35 0.34 1.7 0 0 Z " fill="#A5A6A7" transform="translate(121,216)"/>
<path d="M0 0 C1.32 0.66 2.64 1.32 4 2 C3.67 3.98 3.34 5.96 3 8 C1.68 7.01 0.36 6.02 -1 5 C-0.67 3.35 -0.34 1.7 0 0 Z " fill="#CDCDCD" transform="translate(150,67)"/>
<path d="M0 0 C-1.05098766 2.86632997 -1.66862954 3.83006643 -4.4375 5.25 C-7 6 -7 6 -10 6 C-9 3 -9 3 -7.0625 1.875 C-6.381875 1.58625 -5.70125 1.2975 -5 1 C-3 0 -3 0 0 0 Z " fill="#5F5E60" transform="translate(177,209)"/>
<path d="M0 0 C0.66 0.33 1.32 0.66 2 1 C0.21024844 2.48148332 -1.58186057 3.96011906 -3.375 5.4375 C-4.87160156 6.67306641 -4.87160156 6.67306641 -6.3984375 7.93359375 C-9 10 -9 10 -11 11 C-10.68276924 7.94918504 -10.11098219 7.09333887 -7.71484375 5.078125 C-6.34005859 4.17320313 -6.34005859 4.17320313 -4.9375 3.25 C-4.01839844 2.63640625 -3.09929687 2.0228125 -2.15234375 1.390625 C-1.44207031 0.93171875 -0.73179687 0.4728125 0 0 Z " fill="#C8C9CA" transform="translate(213,88)"/>
<path d="M0 0 C3 2 3 2 3.51171875 3.9453125 C3.67447917 5.96354167 3.83723958 7.98177083 4 10 C3.01 10.495 3.01 10.495 2 11 C0.57741188 7.17679443 -0.24042276 4.08718695 0 0 Z " fill="#BCBCBD" transform="translate(182,53)"/>
<path d="M0 0 C-0.66 1.32 -1.32 2.64 -2 4 C-4.97 4 -7.94 4 -11 4 C-8.07317918 1.07317918 -4.14037627 0 0 0 Z " fill="#6B6B6B" transform="translate(121,40)"/>
<path d="M0 0 C-5.5825192 3.32575612 -9.49686791 4.46450943 -16 4 C-16 3.67 -16 3.34 -16 3 C-12.7 2.67 -9.4 2.34 -6 2 C-6 1.34 -6 0.68 -6 0 C-3.50907189 -1.24546405 -2.58919267 -0.7767578 0 0 Z " fill="#BCBDBE" transform="translate(205,158)"/>
<path d="M0 0 C0.99 0.33 1.98 0.66 3 1 C1.68775452 4.93673644 0.08089673 7.22719294 -3 10 C-3.66 9.34 -4.32 8.68 -5 8 C-4.01 8 -3.02 8 -2 8 C-1.34 5.36 -0.68 2.72 0 0 Z " fill="#575455" transform="translate(77,152)"/>
<path d="M0 0 C0.4125 0.66 0.825 1.32 1.25 2 C1.8275 2.66 2.405 3.32 3 4 C4.32 4 5.64 4 7 4 C6.67 5.32 6.34 6.64 6 8 C4.125 7.6875 4.125 7.6875 2 7 C0 4 0 4 0 0 Z " fill="#474344" transform="translate(11,103)"/>
<path d="M0 0 C-0.625 1.9375 -0.625 1.9375 -2 4 C-5 4.6875 -5 4.6875 -8 5 C-8.99 5.495 -8.99 5.495 -10 6 C-8.94901234 3.13367003 -8.33137046 2.16993357 -5.5625 0.75 C-3 0 -3 0 0 0 Z " fill="#828386" transform="translate(244,67)"/>
<path d="M0 0 C0.33 0 0.66 0 1 0 C1.144375 1.051875 1.28875 2.10375 1.4375 3.1875 C1.92163439 6.82934366 1.92163439 6.82934366 2.625 9.6875 C3.02258587 12.13927953 2.7786753 13.6639741 2 16 C-0.27141454 10.60539047 -0.20413361 5.73842251 0 0 Z " fill="#EDEDED" transform="translate(108,51)"/>
<path d="M0 0 C1.32 0.33 2.64 0.66 4 1 C3.67 1.99 3.34 2.98 3 4 C-0.0625 5.1875 -0.0625 5.1875 -3 6 C-2 4 -1 2 0 0 Z " fill="#C3C3C4" transform="translate(56,2)"/>
<path d="M0 0 C0.99 0 1.98 0 3 0 C2.625 2.4375 2.625 2.4375 2 5 C1.01 5.495 1.01 5.495 0 6 C-0.66 5.67 -1.32 5.34 -2 5 C-1.125 1.125 -1.125 1.125 0 0 Z " fill="#4E4D4E" transform="translate(233,147)"/>
<path d="M0 0 C1.125 3.75 1.125 3.75 0 6 C-1.9375 5.6875 -1.9375 5.6875 -4 5 C-4.33 4.01 -4.66 3.02 -5 2 C-3.35 1.34 -1.7 0.68 0 0 Z " fill="#D1D1D1" transform="translate(17,102)"/>
<path d="M0 0 C0.99 0.66 1.98 1.32 3 2 C3 2.66 3 3.32 3 4 C0.35261084 5.4606285 -0.89448334 6 -4 6 C-4 4 -4 4 -2 1.875 C-1.34 1.25625 -0.68 0.6375 0 0 Z " fill="#909193" transform="translate(185,206)"/>
<path d="M0 0 C0.99 0.495 0.99 0.495 2 1 C2 1.66 2 2.32 2 3 C2.639375 3.28875 3.27875 3.5775 3.9375 3.875 C6 5 6 5 7 7 C6.01 7.33 5.02 7.66 4 8 C0 3.375 0 3.375 0 0 Z " fill="#B5B5B6" transform="translate(133,177)"/>
<path d="M0 0 C0.66 0.33 1.32 0.66 2 1 C-0.475 5.455 -0.475 5.455 -3 10 C-3.66 9.34 -4.32 8.68 -5 8 C-3.35 5.36 -1.7 2.72 0 0 Z " fill="#7A7C7F" transform="translate(234,158)"/>
<path d="M0 0 C0 0.66 0 1.32 0 2 C-1.32 2.33 -2.64 2.66 -4 3 C-3.67 4.32 -3.34 5.64 -3 7 C-5 5.625 -5 5.625 -7 4 C-7 3.34 -7 2.68 -7 2 C-4.35261084 0.5393715 -3.10551666 0 0 0 Z " fill="#EAEAEA" transform="translate(91,132)"/>
<path d="M0 0 C0.66 0.33 1.32 0.66 2 1 C1.71125 1.556875 1.4225 2.11375 1.125 2.6875 C-0.0413253 5.08494645 -1.0339881 7.51596939 -2 10 C-2.66 9.67 -3.32 9.34 -4 9 C-3.46930939 5.17902761 -2.50298434 2.93828597 0 0 Z " fill="#CACBCB" transform="translate(65,77)"/>
<path d="M0 0 C1.32 0.33 2.64 0.66 4 1 C4 1.66 4 2.32 4 3 C3.34 3 2.68 3 2 3 C2.66 4.65 3.32 6.3 4 8 C3.34 8 2.68 8 2 8 C0.23537317 4.91190305 0 3.76687864 0 0 Z " fill="#CACACB" transform="translate(24,165)"/>
<path d="M0 0 C1.5625 1.8125 1.5625 1.8125 3 4 C2.67 4.99 2.34 5.98 2 7 C0.68 6.34 -0.64 5.68 -2 5 C-1.125 1.125 -1.125 1.125 0 0 Z " fill="#918F90" transform="translate(83,161)"/>
<path d="M0 0 C0.33 0.66 0.66 1.32 1 2 C1.66 2 2.32 2 3 2 C2.67 4.97 2.34 7.94 2 11 C1.67 11 1.34 11 1 11 C0.67 7.37 0.34 3.74 0 0 Z " fill="#D4D4D5" transform="translate(36,111)"/>
<path d="M0 0 C-0.56371414 3.26954202 -1.49962266 4.82575883 -4 7 C-4.6875 5.1875 -4.6875 5.1875 -5 3 C-3.38441968 0.84589291 -2.74502455 0 0 0 Z " fill="#9C9C9C" transform="translate(77,43)"/>
<path d="M0 0 C0.99 0.495 0.99 0.495 2 1 C2 1.66 2 2.32 2 3 C3.32 3 4.64 3 6 3 C6 3.66 6 4.32 6 5 C4.35 5.33 2.7 5.66 1 6 C0.67 4.02 0.34 2.04 0 0 Z " fill="#5C595A" transform="translate(90,171)"/>
<path d="M0 0 C0.99 0.33 1.98 0.66 3 1 C1.75023244 4.65316671 1.32901247 5.78065836 -2 8 C-1.34 5.36 -0.68 2.72 0 0 Z " fill="#444041" transform="translate(88,153)"/>
<path d="M0 0 C-1.0975223 2.99324263 -1.67682892 3.84610901 -4.625 5.25 C-5.40875 5.4975 -6.1925 5.745 -7 6 C-6.34 5.01 -5.68 4.02 -5 3 C-5.33 2.34 -5.66 1.68 -6 1 C-3.92446352 0.4465236 -2.15634036 0 0 0 Z " fill="#565656" transform="translate(99,44)"/>
<path d="M0 0 C0.99 0.33 1.98 0.66 3 1 C3 3.31 3 5.62 3 8 C2.34 8 1.68 8 1 8 C1 6.02 1 4.04 1 2 C0.34 1.67 -0.32 1.34 -1 1 C-0.67 0.67 -0.34 0.34 0 0 Z " fill="#3E3B3C" transform="translate(136,23)"/>
<path d="M0 0 C0.86625 0.3403125 0.86625 0.3403125 1.75 0.6875 C-0.23 2.0075 -2.21 3.3275 -4.25 4.6875 C-4.91 4.0275 -5.57 3.3675 -6.25 2.6875 C-2.80384615 -0.38942308 -2.80384615 -0.38942308 0 0 Z " fill="#ABACAD" transform="translate(209.25,153.3125)"/>
<path d="M0 0 C0 0.66 0 1.32 0 2 C-2.31 2.33 -4.62 2.66 -7 3 C-6.67 2.01 -6.34 1.02 -6 0 C-3 -1 -3 -1 0 0 Z " fill="#818181" transform="translate(71,55)"/>
</svg>
