<?xml version="1.0" encoding="UTF-8"?>
<svg version="1.1" xmlns="http://www.w3.org/2000/svg" width="866" height="650">
<path d="M0 0 C285.78 0 571.56 0 866 0 C866 214.5 866 429 866 650 C580.22 650 294.44 650 0 650 C0 435.5 0 221 0 0 Z " fill="#FEFEFE" transform="translate(0,0)"/>
<path d="M0 0 C2.49028364 1.54765867 4.70422556 3.16338044 7 5 C7.33 2.69 7.66 0.38 8 -2 C19.22 -2 30.44 -2 42 -2 C42 30.67 42 63.34 42 97 C30.78 97 19.56 97 8 97 C7.505 93.535 7.505 93.535 7 90 C6.195625 90.7425 5.39125 91.485 4.5625 92.25 C-4.57597357 99.890719 -15.41330324 100.81686917 -26.86279297 100.2265625 C-35.31724946 99.33031671 -42.75189932 94.50266567 -49 89 C-49.60457031 88.47664063 -50.20914063 87.95328125 -50.83203125 87.4140625 C-60.77022123 78.19038291 -65.63504353 66.03151557 -66.3828125 52.6328125 C-66.69925048 42.56870881 -66.55418081 33.19375252 -62 24 C-61.5875 23.14664062 -61.175 22.29328125 -60.75 21.4140625 C-54.32817027 9.5555701 -44.54994048 1.88426752 -32.21484375 -3.1328125 C-21.86871527 -5.92362723 -9.44482782 -5.06203957 0 0 Z " fill="#020202" transform="translate(285,252)"/>
<path d="M0 0 C11.88 0 23.76 0 36 0 C36.33 16.83 36.66 33.66 37 51 C39.64 49.02 42.28 47.04 45 45 C50.39823625 42.10830606 54.82195511 41.48126367 60.8125 41.5625 C62.0044397 41.57603516 62.0044397 41.57603516 63.22045898 41.58984375 C73.07547502 41.87990452 79.85741795 44.89753656 87.0234375 51.734375 C96.58121984 62.68993579 96.29324093 76.53431634 96.1953125 90.2890625 C96.19157474 91.84418555 96.18873138 93.39931099 96.18673706 94.95443726 C96.17916064 99.01502167 96.15956484 103.07545927 96.1373291 107.13598633 C96.11311006 112.02535469 96.10406111 116.91477258 96.09242249 121.80418396 C96.07313597 129.2028909 96.03477207 136.60127675 96 144 C84.12 144 72.24 144 60 144 C59.96261719 139.58238281 59.92523438 135.16476562 59.88671875 130.61328125 C59.84859811 127.08534562 59.80752541 123.55747178 59.7644577 120.02959442 C59.71984097 116.30856894 59.68039683 112.58765492 59.65356445 108.86645508 C59.62750722 105.28063327 59.58708857 101.69523181 59.53681374 98.10967064 C59.52016121 96.74343288 59.50863685 95.37712244 59.50238609 94.0107975 C59.49272839 92.09342502 59.4629542 90.17618611 59.43237305 88.2590332 C59.42126999 87.16871292 59.41016693 86.07839264 59.39872742 84.95503235 C58.86574663 81.00502688 57.48633093 78.15603517 54.3125 75.6875 C50.8421372 74.65577052 47.55489428 74.42754188 44 75 C39.91439045 77.39807517 38.43668002 79.57038077 37 84 C36.67632541 86.92734326 36.67632541 86.92734326 36.68115234 90.07543945 C36.66128265 91.27630692 36.64141296 92.47717438 36.62094116 93.71443176 C36.60938995 95.00105209 36.59783875 96.28767242 36.5859375 97.61328125 C36.56721402 98.95136189 36.54763973 100.28943087 36.5272522 101.62748718 C36.4760493 105.13726916 36.43636064 108.64708938 36.39910889 112.15704346 C36.35899462 115.7434624 36.30804148 119.32972643 36.2578125 122.91601562 C36.16017404 129.94395081 36.08056498 136.97176532 36 144 C24.12 144 12.24 144 0 144 C0 96.48 0 48.96 0 0 Z " fill="#050505" transform="translate(338,206)"/>
<path d="M0 0 C11.24348496 8.12356505 19.11690698 19.13151633 21.88671875 32.91015625 C23.69364128 46.82345976 21.92224562 60.6813024 14.23828125 72.6171875 C5.02402218 84.49177758 -6.68238921 93.24343121 -21.76171875 95.6171875 C-32.90414953 96.55074903 -43.48704847 96.45321266 -53.76171875 91.6171875 C-55.17324219 90.98103516 -55.17324219 90.98103516 -56.61328125 90.33203125 C-69.54031529 83.93973756 -77.86774011 73.01123432 -82.76171875 59.6171875 C-85.79508416 45.73206417 -85.41900475 29.35631277 -78.21875 16.9609375 C-72.07362703 7.62372548 -64.72105673 0.69449706 -54.76171875 -4.3828125 C-53.99988281 -4.79789063 -53.23804688 -5.21296875 -52.453125 -5.640625 C-36.57663679 -12.905706 -14.19646434 -9.34039061 0 0 Z " fill="#020202" transform="translate(637.76171875,256.3828125)"/>
<path d="M0 0 C0.94875 0.4125 1.8975 0.825 2.875 1.25 C16.44975457 7.88654668 23.3128144 18.546762 29 32 C32.76439262 44.46634953 31.31934087 60.3010888 25.76953125 71.93359375 C23.20715906 76.3739076 20.53955585 80.28611913 17 84 C16.14341797 84.91652344 16.14341797 84.91652344 15.26953125 85.8515625 C5.11414011 95.68215435 -8.39679671 100.40969441 -22.3125 100.3125 C-23.14773193 100.30758545 -23.98296387 100.3026709 -24.84350586 100.29760742 C-31.27201929 100.17596161 -36.99301579 99.40864464 -43 97 C-43.8353125 96.67128906 -44.670625 96.34257812 -45.53125 96.00390625 C-56.5193539 91.10334757 -66.69237996 81.62900415 -71.50390625 70.53125 C-76.91865406 55.8450964 -78.68901043 40.53772546 -72 26 C-66.29918431 14.72979953 -59.13215074 7.0110696 -48 1 C-46.60201172 0.23429688 -46.60201172 0.23429688 -45.17578125 -0.546875 C-31.53476412 -6.8948516 -13.58263937 -6.03672861 0 0 Z " fill="#020202" transform="translate(517,252)"/>
<path d="M0 0 C12.54 0 25.08 0 38 0 C49.2958774 28.5152027 49.2958774 28.5152027 53.12988281 39.70898438 C54.82161592 44.61526249 56.84792796 49.28199591 59 54 C59 54.66 59 55.32 59 56 C59.66 56 60.32 56 61 56 C61.16789032 55.40324966 61.33578064 54.80649933 61.50875854 54.19166565 C63.38685335 47.70599242 65.66975769 41.47353702 68.1953125 35.21484375 C68.58822479 34.23254288 68.98113708 33.250242 69.38595581 32.23817444 C70.20917946 30.18277636 71.03449209 28.12821382 71.86181641 26.07446289 C73.13326012 22.916987 74.39717733 19.75657314 75.66015625 16.59570312 C76.46310361 14.59357426 77.2664736 12.59161483 78.0703125 10.58984375 C78.44946808 9.64205551 78.82862366 8.69426727 79.2192688 7.71775818 C79.56988373 6.84917679 79.92049866 5.9805954 80.28173828 5.08569336 C80.59023712 4.31865585 80.89873596 3.55161835 81.21658325 2.76133728 C82 1 82 1 83 0 C85.73894085 -0.08858646 88.4525327 -0.11523479 91.19140625 -0.09765625 C92.01124496 -0.0962413 92.83108368 -0.09482635 93.67576599 -0.09336853 C96.30471382 -0.08775289 98.93357773 -0.07519779 101.5625 -0.0625 C103.34049357 -0.05748701 105.11848846 -0.05292376 106.89648438 -0.04882812 C111.26435545 -0.03777839 115.63216348 -0.02050331 120 0 C117.64033438 7.44867782 114.76625819 14.60751807 111.75 21.8125 C111.21919324 23.08720058 110.68868426 24.3620252 110.15844727 25.63696289 C108.73434967 29.05894689 107.30644085 32.47932702 105.87750244 35.89929199 C103.53322907 41.51139473 101.19403701 47.12562003 98.85388184 52.73944092 C98.24097087 54.20958629 97.62793294 55.67967873 97.01477051 57.14971924 C91.31431009 70.81706578 85.65155081 84.49986344 80 98.1875 C79.60094452 99.15396454 79.20188904 100.12042908 78.79074097 101.11618042 C73.85369879 113.07466336 68.92596497 125.03694222 64 137 C51.46 137 38.92 137 26 137 C27.46631796 132.60104613 29.01280851 128.51380097 30.85546875 124.28125 C31.40116409 123.00684133 31.94606234 121.73209111 32.49023438 120.45703125 C33.3389342 118.47238691 34.19183063 116.49011979 35.05834961 114.51318359 C35.90050465 112.58737142 36.72317795 110.65416881 37.54296875 108.71875 C38.03821045 107.57341797 38.53345215 106.42808594 39.04370117 105.24804688 C40.66182122 99.75213951 39.02402288 95.60450824 36.875 90.4765625 C36.42431152 89.39334717 35.97362305 88.31013184 35.50927734 87.1940918 C35.01121582 86.0162915 34.5131543 84.83849121 34 83.625 C33.47172393 82.36322292 32.94390504 81.10125436 32.41650391 79.83911133 C30.62238089 75.55457799 28.81266458 71.27671662 27 67 C26.66303101 66.20491028 26.32606201 65.40982056 25.97888184 64.59063721 C22.35788347 56.05037599 18.72717782 47.51424462 15.09526062 38.97862244 C13.71413315 35.73262655 12.3333694 32.48647609 10.95281982 29.24023438 C10.3386188 27.79614787 9.72425158 26.35213204 9.10968018 24.90820312 C7.37769273 20.83795117 5.65470025 16.76402007 3.9375 12.6875 C3.32044189 11.23960083 3.32044189 11.23960083 2.69091797 9.76245117 C2.32756348 8.89595947 1.96420898 8.02946777 1.58984375 7.13671875 C1.27909912 6.40155029 0.96835449 5.66638184 0.64819336 4.90893555 C0 3 0 3 0 0 Z " fill="#020202" transform="translate(106,250)"/>
<path d="M0 0 C13.53 0 27.06 0 41 0 C40.19443534 4.83338795 39.11173643 8.61158725 37.21875 13.01953125 C36.93316223 13.6993103 36.64757446 14.37908936 36.35333252 15.07946777 C35.40801762 17.32630501 34.45393852 19.56931221 33.5 21.8125 C32.83422809 23.39121133 32.16920344 24.97023797 31.50488281 26.54956055 C30.45276185 29.05061494 29.40016187 31.5514562 28.34527588 34.05134583 C24.0985203 44.11834406 19.92661517 54.21625582 15.75 64.3125 C14.32882914 67.74638577 12.90680769 71.17991802 11.484375 74.61328125 C11.17558411 75.35976929 10.86679321 76.10625732 10.54864502 76.87536621 C10.25641052 77.58076538 9.96417603 78.28616455 9.66308594 79.01293945 C9.28793854 79.91928886 9.28793854 79.91928886 8.9052124 80.84394836 C7.62076022 83.90328033 6.30703643 86.95024833 5 90 C-8.86 90 -22.72 90 -37 90 C-35.05626939 84.16880817 -33.07877343 78.51342793 -30.734375 72.85546875 C-30.42390732 72.09949402 -30.11343964 71.34351929 -29.79356384 70.56463623 C-28.78210816 68.10431579 -27.76623269 65.64585072 -26.75 63.1875 C-26.04126968 61.46759227 -25.33269451 59.74762061 -24.62426758 58.02758789 C-22.78870984 53.57436116 -20.94850012 49.12307437 -19.10626221 44.67260742 C-18.01405427 42.03395355 -16.92275061 39.39492704 -15.83154297 36.75585938 C-14.11271563 32.60050482 -12.39070256 28.44648478 -10.66589355 24.29360962 C-10.01809146 22.73361084 -9.37086645 21.17337229 -8.72424316 19.61288452 C-7.82231112 17.43759695 -6.91746052 15.26354732 -6.01171875 13.08984375 C-5.74987289 12.45713562 -5.48802704 11.82442749 -5.21824646 11.17254639 C-3.61926382 7.34662759 -1.86179271 3.72358541 0 0 Z " fill="#020202" transform="translate(714,206)"/>
<path d="M0 0 C2.35304714 1.44640711 4.47542098 2.94807723 6.4296875 4.90234375 C6.7596875 3.25234375 7.0896875 1.60234375 7.4296875 -0.09765625 C14.0296875 -0.09765625 20.6296875 -0.09765625 27.4296875 -0.09765625 C27.4296875 18.71234375 27.4296875 37.52234375 27.4296875 56.90234375 C20.8296875 56.90234375 14.2296875 56.90234375 7.4296875 56.90234375 C7.4296875 55.25234375 7.4296875 53.60234375 7.4296875 51.90234375 C6.7696875 51.90234375 6.1096875 51.90234375 5.4296875 51.90234375 C5.4296875 52.56234375 5.4296875 53.22234375 5.4296875 53.90234375 C-1.10989646 58.88488391 -7.57157848 58.66727581 -15.5703125 57.90234375 C-21.13293623 56.71525826 -25.87429542 53.13516331 -29.5703125 48.90234375 C-35.39147231 39.40545158 -37.36149374 29.89612976 -34.88671875 18.8515625 C-32.18804809 10.75555051 -28.42769236 5.28208341 -21.0078125 0.96484375 C-14.40163973 -2.03433876 -6.79262937 -2.90080373 0 0 Z " fill="#030303" transform="translate(513.5703125,386.09765625)"/>
<path d="M0 0 C5.58653164 3.17665525 8.82314933 6.85700107 11.1875 12.8125 C11.58338476 16.2220744 11.53746062 19.59491759 11.48046875 23.0234375 C11.47622391 23.99157379 11.47197906 24.95971008 11.46760559 25.95718384 C11.45087956 29.03424473 11.41323831 32.11063872 11.375 35.1875 C11.35994532 37.27993842 11.34625829 39.37238717 11.33398438 41.46484375 C11.30355409 46.5811897 11.24482063 51.69610274 11.1875 56.8125 C4.2575 56.8125 -2.6725 56.8125 -9.8125 56.8125 C-9.86148438 54.23695313 -9.91046875 51.66140625 -9.9609375 49.0078125 C-10.01491604 46.5189828 -10.07223574 44.03025101 -10.12988281 41.54150391 C-10.16821341 39.80915593 -10.20305906 38.07672726 -10.234375 36.34423828 C-10.27993765 33.85680251 -10.33794503 31.36992434 -10.3984375 28.8828125 C-10.40998871 28.10567902 -10.42153992 27.32854553 -10.43344116 26.52786255 C-10.40043768 22.20599025 -10.40043768 22.20599025 -12.8125 18.8125 C-16.3125 18.47916667 -16.3125 18.47916667 -19.8125 18.8125 C-22.75442784 21.75442784 -22.16787397 24.93440973 -22.2265625 28.8828125 C-22.24592865 29.67904022 -22.2652948 30.47526794 -22.2852478 31.29562378 C-22.34510474 33.84280634 -22.39145279 36.39003395 -22.4375 38.9375 C-22.47567421 40.6627803 -22.51472561 42.38804143 -22.5546875 44.11328125 C-22.65246553 48.34625532 -22.73198339 52.57902123 -22.8125 56.8125 C-30.0725 56.8125 -37.3325 56.8125 -44.8125 56.8125 C-44.8125 38.0025 -44.8125 19.1925 -44.8125 -0.1875 C-37.5525 -0.1875 -30.2925 -0.1875 -22.8125 -0.1875 C-22.4825 1.1325 -22.1525 2.4525 -21.8125 3.8125 C-21.049375 3.173125 -20.28625 2.53375 -19.5 1.875 C-13.73709589 -2.54769385 -6.69039891 -2.08389474 0 0 Z " fill="#070707" transform="translate(593.8125,386.1875)"/>
<path d="M0 0 C6.24757034 4.18053034 9.50196062 9.73244436 11.8515625 16.78125 C11.8515625 21.40125 11.8515625 26.02125 11.8515625 30.78125 C-0.6884375 30.78125 -13.2284375 30.78125 -26.1484375 30.78125 C-23.98177083 36.61458333 -23.98177083 36.61458333 -21.1484375 37.78125 C-15.20376089 38.40974279 -15.20376089 38.40974279 -9.8984375 36.21875 C-9.3209375 35.744375 -8.7434375 35.27 -8.1484375 34.78125 C-3.96820444 35.25984556 -0.23057864 36.80949743 3.6640625 38.34375 C4.82550781 38.79878906 5.98695313 39.25382812 7.18359375 39.72265625 C8.06402344 40.07199219 8.94445312 40.42132813 9.8515625 40.78125 C7.5341183 47.20786608 3.53621312 50.19223249 -2.4609375 53.09375 C-11.09688347 56.29466795 -22.09156302 56.28528364 -30.7734375 53.21875 C-38.15696515 49.62744233 -42.35545094 44.40060407 -45.421875 36.89453125 C-48.37498916 28.30509705 -47.84161768 20.06292678 -44.1484375 11.78125 C-40.64919196 5.30116568 -34.37761264 -1.17913487 -27.3203125 -3.78515625 C-17.82418704 -5.68096547 -8.40639746 -4.76872001 0 0 Z " fill="#040404" transform="translate(705.1484375,389.21875)"/>
<path d="M0 0 C5.36941848 3.11707814 8.6079351 7.15193031 10.5859375 13.0859375 C10.67224676 14.54375472 10.70364731 16.00521224 10.69946289 17.46557617 C10.69938736 18.34626266 10.69931183 19.22694916 10.69923401 20.13432312 C10.69407272 21.08128555 10.68891144 22.02824799 10.68359375 23.00390625 C10.6821788 23.97628738 10.68076385 24.94866852 10.67930603 25.95051575 C10.67370567 29.05818754 10.66115312 32.16578746 10.6484375 35.2734375 C10.64342255 37.37955625 10.63885963 39.48567613 10.63476562 41.59179688 C10.62458675 46.75656043 10.60501133 51.92116844 10.5859375 57.0859375 C3.9859375 57.0859375 -2.6140625 57.0859375 -9.4140625 57.0859375 C-9.47013672 53.59966797 -9.47013672 53.59966797 -9.52734375 50.04296875 C-9.5736067 47.78237709 -9.62482278 45.5219479 -9.67651367 43.26147461 C-9.70968782 41.69516949 -9.73774308 40.12874699 -9.76049805 38.56225586 C-9.79418366 36.30531987 -9.84650299 34.04945224 -9.90234375 31.79296875 C-9.90873367 31.09694046 -9.9151236 30.40091217 -9.92170715 29.68379211 C-10.05089975 25.3740966 -10.64181379 22.44666355 -13.4140625 19.0859375 C-16.95656301 18.41916872 -16.95656301 18.41916872 -20.4140625 19.0859375 C-22.88519831 22.79264122 -22.76194839 25.73785931 -22.828125 30.03515625 C-22.84749115 30.80777298 -22.8668573 31.58038971 -22.8868103 32.37641907 C-22.94654729 34.8419799 -22.99296736 37.30758757 -23.0390625 39.7734375 C-23.07724775 41.4459838 -23.11629981 43.11851055 -23.15625 44.79101562 C-23.25387474 48.88922067 -23.3334876 52.98721975 -23.4140625 57.0859375 C-30.3440625 57.0859375 -37.2740625 57.0859375 -44.4140625 57.0859375 C-44.4140625 38.6059375 -44.4140625 20.1259375 -44.4140625 1.0859375 C-37.8140625 1.0859375 -31.2140625 1.0859375 -24.4140625 1.0859375 C-24.4140625 2.7359375 -24.4140625 4.3859375 -24.4140625 6.0859375 C-23.7540625 6.0859375 -23.0940625 6.0859375 -22.4140625 6.0859375 C-22.1046875 5.18875 -22.1046875 5.18875 -21.7890625 4.2734375 C-17.46856911 -2.60007471 -6.93929873 -2.62750146 0 0 Z " fill="#030303" transform="translate(461.4140625,385.9140625)"/>
<path d="M0 0 C0 5.61 0 11.22 0 17 C-2.50651042 17.16276042 -5.01302083 17.32552083 -7.51953125 17.48828125 C-10.40407633 18.08336063 -11.32152127 18.60141683 -13 21 C-13.33 22.65 -13.66 24.3 -14 26 C-9.38 26 -4.76 26 0 26 C0 31.61 0 37.22 0 43 C-4.62 43 -9.24 43 -14 43 C-14 56.2 -14 69.4 -14 83 C-20.93 83 -27.86 83 -35 83 C-35 69.8 -35 56.6 -35 43 C-37.64 43 -40.28 43 -43 43 C-43 37.39 -43 31.78 -43 26 C-40.36 26 -37.72 26 -35 26 C-35.12375 24.329375 -35.12375 24.329375 -35.25 22.625 C-35.21763916 16.54116156 -33.36232098 10.85272685 -29.45703125 6.13671875 C-21.52260124 -1.18038719 -10.32300669 -3.44100223 0 0 Z " fill="#060606" transform="translate(381,360)"/>
<path d="M0 0 C1.18207031 -0.01417969 2.36414063 -0.02835937 3.58203125 -0.04296875 C7.1875 0.1875 7.1875 0.1875 14.1875 2.1875 C14.1875 8.4575 14.1875 14.7275 14.1875 21.1875 C12.2075 20.8575 10.2275 20.5275 8.1875 20.1875 C6.48149214 20.07865974 4.77192375 20.01339674 3.0625 20 C2.23492188 19.98582031 1.40734375 19.97164063 0.5546875 19.95703125 C-2.03039683 20.20871438 -3.61222852 20.83050437 -5.8125 22.1875 C-8.35844764 25.62452931 -8.17649464 29.03796112 -7.8125 33.1875 C-6.57293745 35.97651573 -5.52799246 37.63100587 -3.125 39.5 C3.2255063 41.38798836 7.9030954 39.98304417 14.1875 38.1875 C14.1875 44.4575 14.1875 50.7275 14.1875 57.1875 C5.27652897 60.15782368 -5.63982396 61.23960541 -14.4375 57.125 C-20.99888629 53.14130118 -26.29571426 48.13666518 -29.15234375 40.90234375 C-31.44516434 31.47328866 -30.73523257 21.6067529 -25.8125 13.1875 C-21.75921049 6.91660529 -16.03353685 2.94256313 -8.96484375 0.56640625 C-5.96153685 0.03769342 -3.04824676 0.01651271 0 0 Z " fill="#060606" transform="translate(640.8125,384.8125)"/>
<path d="M0 0 C4.74508278 3.15356433 9.08024231 7.83447692 10.88671875 13.25390625 C12.34914759 29.72937038 12.34914759 29.72937038 6.83203125 36.4140625 C0.91458693 42.01068153 -4.03740642 44.6066803 -12.30078125 44.87890625 C-20.46840073 44.47229316 -24.33452973 42.33530073 -29.92578125 36.37890625 C-34.21147991 31.16111617 -35.62108242 26.3863448 -35.41796875 19.68359375 C-34.43788743 11.86807348 -31.21701639 6.59616036 -25.2109375 1.62890625 C-17.96772106 -3.11897492 -7.94209137 -3.44656796 0 0 Z " fill="#030303" transform="translate(699.11328125,306.74609375)"/>
<path d="M0 0 C4.92742962 2.81837625 8.60177858 6.77558996 10.47265625 12.1640625 C11.2696416 17.86991338 11.59711917 23.84446113 8.91015625 29.1015625 C5.41808179 33.48904066 1.87174122 37.36436751 -3.52734375 39.1640625 C-10.52598421 39.88984744 -16.120215 39.85421957 -21.91015625 35.58984375 C-26.37508353 31.65337404 -29.15816573 27.45789753 -29.828125 21.48046875 C-29.86949076 11.75951464 -29.86949076 11.75951464 -26.52734375 7.1640625 C-18.74488694 -0.49107395 -11.1034124 -3.67253517 0 0 Z " fill="#FBFBFB" transform="translate(282.52734375,280.8359375)"/>
<path d="M0 0 C5.47401863 3.11267726 9.08497459 6.83690145 11.1875 12.8125 C11.96414147 18.98774682 11.73871145 24.55192198 8.59765625 30.0234375 C5.02326015 34.55826691 0.04362443 38.34854815 -5.79296875 39.05078125 C-11.64166026 39.24746291 -16.08169302 38.39042125 -20.8125 34.8125 C-26.5100583 28.76813381 -28.24509545 23.64103121 -28.16015625 15.4140625 C-27.42051523 9.87922068 -24.23980118 6.1353645 -20.25 2.4375 C-13.59759789 -1.99743474 -7.66162845 -2.38640886 0 0 Z " fill="#FAFAFA" transform="translate(614.8125,281.1875)"/>
<path d="M0 0 C4.03859568 2.87463361 6.86054582 6.71435641 8.7890625 11.2734375 C9.82503235 18.24816475 8.58787056 24.34073108 4.7890625 30.2734375 C0.9388226 34.70770255 -3.5451057 36.76827632 -9.30859375 37.5625 C-16.75814973 38.04806283 -21.01004783 34.8846896 -26.5859375 30.3359375 C-30.59177726 25.25160242 -30.70628067 19.50654362 -30.58984375 13.25 C-29.81240487 7.14269664 -26.85680516 3.5834138 -22.1484375 -0.1640625 C-14.93639513 -4.00025525 -7.13496384 -4.00808726 0 0 Z " fill="#F9F9F9" transform="translate(505.2109375,282.7265625)"/>
<path d="M0 0 C6.6 0 13.2 0 20 0 C20 18.48 20 36.96 20 56 C13.4 56 6.8 56 0 56 C0 37.52 0 19.04 0 0 Z " fill="#000000" transform="translate(388,387)"/>
<path d="M0 0 C2.93423195 1.79646854 4.47205355 2.9441071 6 6 C6.53118173 9.79415519 6.85089348 13.46331178 4.953125 16.890625 C2.62271153 19.71453779 0.71892696 21.79399893 -2.98828125 22.23828125 C-7.01006012 22.3667078 -9.3801072 22.35610863 -12.9375 20.3125 C-16.1938779 16.66140963 -17.05062582 14.41752283 -16.875 9.5 C-15.92080906 5.68323625 -14.71834365 3.8007177 -12 1 C-8.30274625 -0.84862688 -4.03538558 -0.47587094 0 0 Z " fill="#070707" transform="translate(403,359)"/>
<path d="M0 0 C3.68264918 0.82397173 5.37569233 2.58024305 7.56640625 5.57421875 C7.89640625 5.90421875 8.22640625 6.23421875 8.56640625 6.57421875 C8.91863779 11.8576919 9.08349894 15.32945171 5.56640625 19.57421875 C1.63179001 22.74377072 -1.45437262 23.10770673 -6.43359375 22.57421875 C-9.93023278 21.14377551 -11.19312658 19.94735747 -13.24609375 16.76171875 C-14.56942537 13.20961809 -15.12031814 11.31305155 -14.43359375 7.57421875 C-11.18533987 1.03809814 -7.09957 -0.43466755 0 0 Z " fill="#F5F5F5" transform="translate(512.43359375,403.42578125)"/>
<path d="M0 0 C3.30692058 0.53281382 5.03948765 1.88568666 7.23046875 4.359375 C7.23046875 5.349375 7.23046875 6.339375 7.23046875 7.359375 C1.29046875 7.359375 -4.64953125 7.359375 -10.76953125 7.359375 C-9.07834919 0.59464677 -6.56925345 -0.21433127 0 0 Z " fill="#FCFCFC" transform="translate(689.76953125,400.640625)"/>
<path d="M0 0 C0.66 0.33 1.32 0.66 2 1 C2 2.33333333 2 3.66666667 2 5 C4.31 5 6.62 5 9 5 C9 5.66 9 6.32 9 7 C4.71 7 0.42 7 -4 7 C-3.04065919 3.16263678 -2.76390737 2.40339772 0 0 Z " fill="#EAEAEA" transform="translate(683,401)"/>
<path d="M0 0 C2 1.3125 2 1.3125 4 3 C4 3.99 4 4.98 4 6 C2.35 6 0.7 6 -1 6 C-1 5.34 -1 4.68 -1 4 C-1.99 3.67 -2.98 3.34 -4 3 C-2.68 2.01 -1.36 1.02 0 0 Z " fill="#F3F3F3" transform="translate(693,402)"/>
<path d="M0 0 C0.66 0 1.32 0 2 0 C2 1.65 2 3.3 2 5 C1.01 5.33 0.02 5.66 -1 6 C-1.66 5.67 -2.32 5.34 -3 5 C-2.67 4.01 -2.34 3.02 -2 2 C-1.34 2 -0.68 2 0 2 C0 1.34 0 0.68 0 0 Z " fill="#DCDCDC" transform="translate(519,438)"/>
<path d="M0 0 C0.66 0.33 1.32 0.66 2 1 C-1.96 4.465 -1.96 4.465 -6 8 C-6 5 -6 5 -4.6875 3.61328125 C-3.125 2.40885417 -1.5625 1.20442708 0 0 Z " fill="#E9E9E9" transform="translate(597,282)"/>
</svg>
